<?xml version="1.0" encoding="utf-8"?>
<!-- Generator: Adobe Illustrator 16.0.3, SVG Export Plug-In . SVG Version: 6.00 Build 0)  -->
<!DOCTYPE svg PUBLIC "-//W3C//DTD SVG 1.1//EN" "http://www.w3.org/Graphics/SVG/1.1/DTD/svg11.dtd">
<svg version="1.1" id="Layer_1" xmlns="http://www.w3.org/2000/svg" xmlns:xlink="http://www.w3.org/1999/xlink" x="0px" y="0px"
	 width="168px" height="212px" viewBox="0 0 168 212" enable-background="new 0 0 168 212" xml:space="preserve">
<g>
	<rect y="0.017" fill="#F1E7CD" stroke="#9B9289" stroke-miterlimit="10" width="168" height="211.983"/>
	<ellipse opacity="0.6" cx="12.048" cy="13.155" rx="3.018" ry="3"/>
	<path opacity="0.6" d="M15.066,199.155c0,1.655-1.351,2.999-3.018,2.999c-1.667,0-3.018-1.344-3.018-2.999
		c0-1.659,1.351-3.001,3.018-3.001C13.715,196.154,15.066,197.496,15.066,199.155z"/>
	<ellipse opacity="0.6" cx="156.911" cy="13.155" rx="3.018" ry="3"/>
	<ellipse opacity="0.6" cx="156.911" cy="199.155" rx="3.018" ry="2.999"/>
</g>
<g opacity="0.7">
	<g>
		<g>
			<path fill="#231F20" d="M81.74,77.339c-0.188,0.589-0.354,1.442-0.219,2.081c0.141,0.667,0.724,0.684,1.306,0.763
				c0.944,0.128,1.538,0.993,2.235,1.568c1.091,0.9,2.148,0.704,3.082-0.289c0.566-0.603,1.568-0.658,1.934-1.389
				c0.315-0.632-0.069-1.979-0.27-2.509c0.109,0.289-0.111,0.706,0,1c0.159,0.419,0.273,0.775,0.313,1.221c0-0.333,0-0.667,0-1
				c-0.156,1.036-1.184,0.79-1.783,1.434c-0.898,0.964-1.643,1.466-2.906,0.791c-0.881-0.471-1.395-1.527-2.379-1.788
				c-0.624-0.165-1.365-0.015-1.531-0.802c0,0.327,0.001,0.654,0.001,0.982c0.006-0.369,0.079-0.723,0.217-1.063
				C81.837,78.035,81.644,77.639,81.74,77.339L81.74,77.339z"/>
		</g>
	</g>
	<g>
		<g>
			<path fill="#231F20" d="M88.277,80.188c-0.563-4.661-0.841-9.173-0.612-13.881c0.015-0.301-0.014-0.729-0.002-0.964
				c-0.262,5.366-0.03,10.502,0.614,15.845C88.238,80.86,88.317,80.517,88.277,80.188L88.277,80.188z"/>
		</g>
	</g>
	<g>
		<g>
			<path fill="#231F20" d="M91.154,85.775c-4.281-0.013-8.537-0.246-12.807-0.532c0.015,0.001-0.03,0.998,0,1
				c4.27,0.287,8.525,0.52,12.807,0.532C91.161,86.775,91.163,85.775,91.154,85.775L91.154,85.775z"/>
		</g>
	</g>
	<g>
		<g>
			<path fill="#231F20" d="M91.154,85.775c-1.147-0.036-1.578-0.901-2.586-1.275c-0.846-0.314-1.831,0.021-2.702-0.091
				c-1.132-0.146-1.881-0.417-3.045-0.167c-1.515,0.325-2.917,0.829-4.473,1.001c-0.044,0.005,0.029,0.997,0,1
				c2.296-0.255,4.679-1.577,6.983-0.981c0.876,0.227,1.615,0.113,2.506,0.142c1.404,0.045,1.958,1.329,3.317,1.372
				C91.151,86.775,91.172,85.776,91.154,85.775L91.154,85.775z"/>
		</g>
	</g>
	<g>
		<g>
			<path fill="#231F20" d="M91.154,85.775c-1.902,0.292-3.087,1.813-5.104,2c-2.721,0.252-4.957-2.164-7.61-2.562
				c0.042,0.006-0.056,0.992,0,1c2.494,0.374,4.362,2.257,6.821,2.559c2.481,0.305,3.689-1.658,5.893-1.996
				C91.212,86.767,91.111,85.782,91.154,85.775L91.154,85.775z"/>
		</g>
	</g>
	<g>
		<g>
			<path fill="#231F20" d="M81.518,65.324c-1.307-0.946-2.622-1.868-4.23-2.184c-1.744-0.342-3.46,0.75-4.833,1.664
				c-0.159,0.106,0.148,0.901,0,1c1.361-0.907,2.729-1.695,4.404-1.705c1.72-0.01,3.345,1.273,4.659,2.225
				C81.364,66.213,81.681,65.442,81.518,65.324L81.518,65.324z"/>
		</g>
	</g>
	<g>
		<g>
			<path fill="#231F20" d="M80.761,65.953c-2.228-2.894-5.215-3.104-7.888-0.629c-0.17,0.158,0.162,0.85,0,1
				c2.673-2.476,5.66-2.265,7.888,0.629C80.603,66.748,80.925,66.166,80.761,65.953L80.761,65.953z"/>
		</g>
	</g>
	<g>
		<g>
			<path fill="#231F20" d="M80.668,65.716c-2.669,0.375-5.047,0.883-7.425-0.737c0.15,0.102-0.16,0.891,0,1
				c2.378,1.62,4.755,1.112,7.425,0.737C80.722,66.708,80.63,65.721,80.668,65.716L80.668,65.716z"/>
		</g>
	</g>
	<g>
		<g>
			<path fill="#231F20" d="M78.441,64.067c-0.242,0.849-0.892,1.449-1.754,1.634c-1.067,0.229-1.911-0.574-2.388-1.428
				c0.14,0.251-0.144,0.743,0,1c0.51,0.914,1.292,1.575,2.388,1.428c0.857-0.115,1.526-0.834,1.754-1.634
				C78.529,64.757,78.354,64.374,78.441,64.067L78.441,64.067z"/>
		</g>
	</g>
	<g>
		<g>
			<path fill="#231F20" d="M77.698,63.828c-0.208,0.472-0.486,0.942-1.017,1.08c-0.544,0.141-1.064-0.341-1.396-0.699
				c0.049,0.053-0.005,0.429-0.005,0.5c0,0.078-0.052,0.438,0.005,0.5c0.347,0.375,0.756,0.726,1.295,0.713
				c0.574-0.014,0.918-0.643,1.117-1.094C77.822,64.546,77.577,64.104,77.698,63.828L77.698,63.828z"/>
		</g>
	</g>
	<g>
		<g>
			<path fill="#231F20" d="M98.579,66.172c-1.128-2.513-5.178-3.157-7.239-1.485c-0.168,0.136,0.158,0.872,0,1
				c2.062-1.672,6.111-1.028,7.239,1.485C98.456,66.897,98.705,66.452,98.579,66.172L98.579,66.172z"/>
		</g>
	</g>
	<g>
		<g>
			<path fill="#231F20" d="M98.115,65.984c-2.701-1.886-5.158-2.052-7.424,0.512c-0.169,0.191,0.162,0.817,0,1
				c2.266-2.564,4.723-2.397,7.424-0.512C97.964,66.879,98.276,66.097,98.115,65.984L98.115,65.984z"/>
		</g>
	</g>
	<g>
		<g>
			<path fill="#231F20" d="M98.115,65.984c-2.379,1.064-4.766,0.978-7.238,0.298c0.078,0.021-0.092,0.975,0,1
				c2.473,0.68,4.859,0.766,7.238-0.298C98.246,66.926,97.997,66.037,98.115,65.984L98.115,65.984z"/>
		</g>
	</g>
	<g>
		<g>
			<path fill="#231F20" d="M96.259,64.979c-0.302,0.76-0.855,1.426-1.686,1.6c-1.042,0.217-1.693-0.835-2-1.654
				c0.108,0.29-0.11,0.706,0,1c0.317,0.847,0.866,1.706,1.875,1.669c0.877-0.031,1.518-0.876,1.811-1.615
				C96.374,65.688,96.146,65.264,96.259,64.979L96.259,64.979z"/>
		</g>
	</g>
	<g>
		<g>
			<path fill="#231F20" d="M95.838,64.721c-0.315,0.441-0.694,0.95-1.273,1.017c-0.599,0.069-1.102-0.609-1.41-1.017
				c0.157,0.208-0.163,0.785,0,1c0.348,0.458,0.781,1.012,1.41,1.017c0.557,0.004,0.991-0.623,1.273-1.017
				C95.998,65.497,95.683,64.938,95.838,64.721L95.838,64.721z"/>
		</g>
	</g>
	<g>
		<g>
			<path fill="#231F20" d="M100.585,65.414c0.464,6.888-0.188,14.621-3.77,20.733c-1.135,1.936-3.106,3.512-4.649,5.113
				c-1.771,1.839-3.044,4.053-5.302,5.361c-5.688,3.295-9.754-1.311-13.435-5.091c-2.45-2.516-4.862-5.156-6.202-8.449
				c-0.578-1.421-0.626-3.027-0.719-4.534c-0.243-3.933-0.248-7.904,0.239-11.816c0.041-0.329-0.041-0.673,0-1
				c-0.366,2.944-0.383,5.885-0.374,8.847c0.009,2.92-0.098,6.043,0.646,8.885c1.087,4.148,4.826,7.36,7.642,10.358
				c2.598,2.767,5.347,5.425,9.433,4.825c3.837-0.564,5.656-3.824,8.072-6.386c2.365-2.509,4.635-4.59,5.964-7.833
				c2.616-6.383,2.913-13.207,2.457-19.978C100.604,64.684,100.564,65.113,100.585,65.414L100.585,65.414z"/>
		</g>
	</g>
	<g>
		<g>
			<path fill="#231F20" d="M66.389,77.339c-1.941-0.891-4.002-1.993-4.455-4.269c0.063,0.319-0.064,0.678,0,1
				c0.453,2.276,2.513,3.378,4.455,4.269C66.269,78.284,66.521,77.4,66.389,77.339L66.389,77.339z"/>
		</g>
	</g>
	<g>
		<g>
			<path fill="#231F20" d="M66.005,80.765c-0.228,0.648-0.597,1.283-1.295,1.485c-0.521,0.15-1.083-0.064-1.499-0.375
				c-0.179-0.133-0.331-0.302-0.453-0.488c-0.054-0.082-0.094-0.172-0.127-0.264c-0.203-0.555-0.148,1-0.014,0.552
				c0.17-0.567,1.099-0.503,1.533-0.467c0-0.327-0.001-0.655-0.001-0.982c-0.039,0.634-0.468,0.534-0.927,0.725
				c-0.125,0.052,0.112,0.953,0,1c0.483-0.202,0.89-0.116,0.93-0.761c0.005-0.092,0.019-0.98-0.001-0.982
				c-0.502-0.042-1.479-0.086-1.563,0.609c-0.065,0.546-0.09,1.209,0.242,1.674c0.341,0.477,0.935,0.786,1.517,0.803
				c0.884,0.026,1.401-0.793,1.659-1.529C66.11,81.466,65.901,81.059,66.005,80.765L66.005,80.765z"/>
		</g>
	</g>
	<g>
		<g>
			<path fill="#231F20" d="M64.149,78.053c0.004,0.05,0.008,0.101,0.012,0.151c-0.001-0.285-0.002-0.569-0.003-0.854
				c-0.015,1.841-2.797,4.531-4.53,2.933c-0.232-0.215-0.359-0.52-0.425-0.823c-0.059-0.269-0.136,0.773,0.052,0.163
				c0.04-0.128,0.109-0.242,0.191-0.346c0.483-0.613,1.129,0.243,1.363,0.631c-0.145-0.242,0.149-0.752,0-1
				c-0.441-0.734-1.321-1.265-1.601-0.115c-0.175,0.722-0.131,1.816,0.345,2.41c1.023,1.274,2.808,0.156,3.622-0.737
				c0.896-0.984,1.074-2.141,0.975-3.413C64.175,77.383,64.123,77.721,64.149,78.053L64.149,78.053z"/>
		</g>
	</g>
	<g>
		<g>
			<path fill="#231F20" d="M62.85,75.754c-0.629,0.599-1.398,0.96-2.042,0.186c0.051,0.062-0.005,0.422-0.005,0.5
				c0,0.085-0.053,0.43,0.005,0.5c0.644,0.775,1.413,0.413,2.042-0.186c0.055-0.052,0.005-0.43,0.005-0.5
				C62.855,76.19,62.804,75.798,62.85,75.754L62.85,75.754z"/>
		</g>
	</g>
	<g>
		<g>
			<path fill="#231F20" d="M62.293,74.083c-1.073,1.803-2.947,2.226-4.693,1.071c-0.698-0.461-1.244-1.159-1.53-1.941
				c-0.056-0.154-0.085-0.315-0.112-0.476c0.106,0.63,0.015,0.245,0.142-0.077c0.154-0.389,0.48-0.68,0.811-0.918
				c0.163-0.117-0.153-0.89,0-1c-1.361,0.978-1.237,3.113-0.361,4.387c1.494,2.172,4.384,2.238,5.744-0.046
				C62.441,74.833,62.148,74.326,62.293,74.083L62.293,74.083z"/>
		</g>
	</g>
	<g>
		<g>
			<path fill="#231F20" d="M65.634,72.113c0.063,0.181,0.094,0.367,0.094,0.559c0-0.327,0-0.655,0.001-0.982
				c-0.16,1.706-2.688,1.65-3.911,1.496c-1.647-0.208-2.997-1.089-3.129-2.866c0.001,0.25,0.003,0.501,0.004,0.752
				c0.008-1.54,3.782-2.405,4.035-0.945c-0.001-0.311-0.002-0.621-0.002-0.932c-0.007,0.49-0.832,0.826-1.175,0.99
				c-0.136,0.065,0.124,0.941,0,1c0.622-0.297,1.177-0.575,1.182-1.306c0.003-0.62,0.078-1.021-0.577-1.27
				c-1.309-0.498-3.453,0.064-3.47,1.704c-0.008,0.834,0.011,1.515,0.386,2.289c0.59,1.215,1.981,1.521,3.221,1.636
				c1.087,0.101,2.719,0.007,3.323-1.067c0.282-0.502,0.164-1.531,0.018-2.058C65.719,71.42,65.547,71.802,65.634,72.113
				L65.634,72.113z"/>
		</g>
	</g>
	<g>
		<g>
			<path fill="#231F20" d="M66.748,65.73c-1.127,2.259-3.45,2.789-5.516,1.383c-0.927-0.631-1.575-1.614-1.878-2.682
				c-0.361-1.27,0.644-2.617,1.468-3.476c0.884-0.921,2.271-1.404,3.497-0.976c1.122,0.392,1.76,1.917,1.376,2.917
				c-0.476,1.237-2.896,1.078-3.011-0.306c0,0.327,0.001,0.655,0.001,0.982c0.036-0.496,0.504-0.744,0.908-0.926
				c0.131-0.059-0.118-0.947,0-1c-1.848,0.831-0.813,3.428,1.149,3.057c1.127-0.213,1.147-1.532,1.145-2.432
				c-0.004-1.661-0.568-3.38-2.486-3.467c-3.358-0.152-4.742,4.183-3.986,6.843c0.442,1.554,1.828,2.767,3.356,3.183
				c1.755,0.477,3.219-0.582,3.977-2.101C66.882,66.46,66.616,65.994,66.748,65.73L66.748,65.73z"/>
		</g>
	</g>
	<g>
		<g>
			<path fill="#231F20" d="M61.922,66.474c-0.25,3.245-4.045,2.668-5.795,0.99c-1.247-1.195-1.337-2.629-0.455-4.047
				c0.492-0.792,1.224-1.49,2.158-1.673c0.916-0.179,1.934,0.793,1.983,1.656c0-0.328,0.001-0.655,0.001-0.982
				c-0.165,1.325-1.607,2.324-2.903,2.014c0.068,0.017-0.083,0.98,0,1c1.859,0.445,3.333-1.525,2.89-3.252
				c-0.418-1.626-2.188-1.673-3.284-0.764c-0.952,0.79-1.561,2.048-1.573,3.275c-0.02,1.978,0.49,3.577,2.317,4.617
				c1.881,1.071,4.472,0.628,4.661-1.834C61.947,67.142,61.896,66.804,61.922,66.474L61.922,66.474z"/>
		</g>
	</g>
	<g>
		<g>
			<path fill="#231F20" d="M59.88,62.204c-1.439,2.58-5.445,2.008-6.311-0.743c0.095,0.301-0.096,0.695,0,1
				c0.866,2.751,4.872,3.323,6.311,0.743C60.024,62.947,59.74,62.455,59.88,62.204L59.88,62.204z"/>
		</g>
	</g>
	<g>
		<g>
			<path fill="#231F20" d="M66.376,59.678c0.647-3.521-0.22-9.561-5.166-7.742c-1.513,0.557-1.98,1.986-1.59,3.447
				c0.661,2.476,3.967,2.188,5.271,0.584c0.054-0.066,0.057-0.949,0-1c-0.762-0.681-1.431-0.876-2.413-0.558
				c-0.104,0.034,0.091,0.971,0,1c0.982-0.318,1.651-0.123,2.413,0.558c0-0.333,0-0.667,0-1c-0.829,1.019-1.916,1.5-3.217,1.202
				c-1.076-0.246-2.095-1.196-2.139-2.335c0,0.328-0.001,0.655-0.001,0.982c0.177-2.139,3.461-2.697,5.014-1.835
				c1.818,1.009,2.16,3.89,1.828,5.697C66.317,59.001,66.436,59.357,66.376,59.678L66.376,59.678z"/>
		</g>
	</g>
	<g>
		<g>
			<path fill="#231F20" d="M63.221,56.451c-0.793,3.521-5.995,3.041-8.094,1.091c-0.251-0.233-0.438-0.521-0.592-0.823
				c-0.056-0.12-0.1-0.243-0.134-0.37c-0.142-0.452-0.099,0.277,0.025-0.232c0.2-0.822,0.855-1.637,1.563-2.074
				c1.467-0.908,5.168-1.266,5.419,1.074c0-0.327-0.001-0.654-0.001-0.982c-0.098,1.91-3.43,3.568-4.124,1.204
				c0.089,0.305-0.091,0.691,0,1c0.484,1.648,2.27,1.254,3.331,0.396c0.824-0.667,0.813-1.598,0.797-2.549
				c-0.029-1.715-1.976-1.855-3.28-1.755c-1.731,0.133-3.143,1.001-3.705,2.687c-1.651,4.953,7.733,7.051,8.795,2.335
				C63.292,57.132,63.15,56.767,63.221,56.451L63.221,56.451z"/>
		</g>
	</g>
	<g>
		<g>
			<path fill="#231F20" d="M58.952,53.853c-1.203,1.128-2.845,1.603-4.472,1.434c-1.775-0.184-2.985-1.516-2.454-3.265
				c0.426-1.404,1.4-3.083,3.085-2.903c1.034,0.11,2.005,1.114,2.09,2.139c0-0.327-0.001-0.655-0.001-0.982
				c-0.017,0.728-0.564,1.039-1.218,1.164c-0.069,0.013,0.054,0.99,0,1c1.321-0.253,1.5-1.636,1.088-2.759
				c-0.766-2.088-3.195-1.848-4.298-0.28c-0.985,1.401-1.551,4.112-0.547,5.683c1.414,2.212,5.185,1.216,6.727-0.23
				C59.123,54.693,58.79,54.005,58.952,53.853L58.952,53.853z"/>
		</g>
	</g>
	<g>
		<g>
			<path fill="#231F20" d="M54.312,46.613c-3.718,3.583,5.714,8.52,7.47,3.862c0.269-0.713,0.227-1.698,0.164-2.457
				c-0.213-2.55-3.239-3.627-4.941-1.687c-1.786,2.035,2.125,5.515,3.432,2.766c0.13-0.275-0.128-0.731,0-1
				c-0.823,1.731-3.531,0.892-3.75-0.844c0,0.327,0.001,0.655,0.001,0.982c0.058-1.111,1.156-1.799,2.154-1.961
				c1.229-0.199,2.386,0.767,2.903,1.779c0.669,1.307-0.534,2.669-1.71,3.057c-1.977,0.651-6.367-0.58-6.433-3.133
				c0,0.327-0.001,0.654-0.001,0.982c0.042-0.557,0.316-0.965,0.711-1.345C54.482,47.449,54.149,46.77,54.312,46.613L54.312,46.613z
				"/>
		</g>
	</g>
	<g>
		<g>
			<path fill="#231F20" d="M63.036,40.859c-1.361-1.867-4.504-1.517-6.373-0.779c-1.743,0.688-2.221,1.983-2.159,3.694
				c0.102,2.798,5.463,2.558,6.213,0.23c0.643-1.997-1.049-3.715-3.065-2.96c-0.116,0.043,0.103,0.961,0,1
				c1.386-0.519,2.979-0.053,3.101,1.623c0-0.328,0.001-0.655,0.001-0.982c-0.326,2.762-5.974,2.904-6.25,0.107
				c0.001,0.285,0.002,0.569,0.003,0.854c0.043-3.47,6.796-4.158,8.526-1.787C62.88,41.646,63.197,41.081,63.036,40.859
				L63.036,40.859z"/>
		</g>
	</g>
	<g>
		<g>
			<path fill="#231F20" d="M58.952,46.428c-2.517-0.35-6.091-0.58-6.331-3.805c0.001,0.122,0.003,0.245,0.005,0.367
				c0.006-0.012,0.011-0.023,0.017-0.035c0.019-0.3-0.018-0.729-0.003-0.964c-0.084,1.323-0.115,2.692,0.839,3.732
				c1.291,1.407,3.722,1.462,5.473,1.705C58.914,47.422,59.005,46.435,58.952,46.428L58.952,46.428z"/>
		</g>
	</g>
	<g>
		<g>
			<path fill="#231F20" d="M65.634,45.5c-1.191,2.267-2.68,4.851-0.742,7.125c0.764,0.896,2.692,1.043,3.64,0.447
				c0.466-0.293,0.341-1.078,0.333-1.538c-0.063-3.711-4.861-0.852-4.903,1.643c-0.013,0.778,0.024,1.417,0.354,2.156
				c0.799,1.789,2.909,1.723,3.917,0.261c0.158-0.229-0.153-0.778,0-1c-1.51,2.19-3.94,0.758-4.269-1.485c0,0.333,0,0.667,0,1
				c0.209-2.265,4.746-5.384,4.897-1.661c0-0.327,0-0.655,0.001-0.982c-0.237,1.043-1.482,0.998-2.334,0.883
				c-1.431-0.194-2.356-1.234-2.554-2.646c0,0.328,0.001,0.655,0.001,0.982c0.057-1.578,0.949-2.835,1.659-4.186
				C65.772,46.236,65.498,45.758,65.634,45.5L65.634,45.5z"/>
		</g>
	</g>
	<g>
		<g>
			<path fill="#231F20" d="M80.11,50.008c0.081,2.456-1.268,4.811-3.552,5.73c-1.313,0.528-5.382,0.548-5.392-1.655
				c-0.001,0.251-0.002,0.501-0.004,0.752c0.307-1.476,2.645-2.238,3.167-0.48c0-0.328,0-0.655-0.001-0.982
				c-0.02,0.694-0.722,0.874-1.27,1.037c-0.098,0.029,0.084,0.975,0,1c0.89-0.264,1.273-0.534,1.275-1.421
				c0.002-0.711-0.082-1.097-0.785-1.474c-1.983-1.063-2.645,1.526-2.318,2.932c0.28,1.208,2.258,1.541,3.25,1.627
				c1.657,0.144,3.28-0.714,4.313-1.95c1.391-1.665,1.385-4.024,1.318-6.078C80.121,49.28,80.1,49.707,80.11,50.008L80.11,50.008z"
				/>
		</g>
	</g>
	<g>
		<g>
			<path fill="#231F20" d="M79.368,47.799c0.254,0.403,0.412,0.787,0.453,1.263c-0.001-0.311-0.001-0.621-0.002-0.932
				c-0.026,1.562-1.606,2.599-2.824,3.268c-0.65,0.356-1.344,0.632-2.046,0.865c-0.321,0.106-0.648,0.188-0.979,0.259
				c-0.333,0.07-0.344-0.51-0.37-0.773c0.002,0.211,0.003,0.422,0.005,0.633c0-0.06,0-0.12,0.001-0.181
				c-0.002,0.123-0.003,0.245-0.005,0.367c0.165-1.516,3.178-2.59,3.324-0.658c0-0.328-0.001-0.655-0.001-0.982
				c-0.012,0.258-0.067,0.459-0.151,0.698c-0.106,0.298,0.104,0.707,0,1c0.373-1.05,0.363-2.627-1.026-2.737
				c-0.783-0.062-1.583,0.377-1.973,1.045c-0.284,0.488-0.185,1.21-0.175,1.748c0.005,0.28,0.038,0.903,0.373,0.842
				c0.483-0.088,0.955-0.246,1.417-0.409c1.184-0.418,2.323-1.028,3.274-1.851c1.25-1.081,1.603-3.045,0.708-4.464
				C79.516,47.034,79.216,47.557,79.368,47.799L79.368,47.799z"/>
		</g>
	</g>
	<g>
		<g>
			<path fill="#231F20" d="M77.513,44.943c-0.849,1.589-2.291,2.939-3.828,3.851c-2.068,1.227-3.978,0.211-4.063-2.257
				c0,0.327,0,0.655-0.001,0.982c0.185-1.427,1.204-2.186,2.581-2.367c1.087-0.143,2.484,0.385,2.708,1.556
				c-0.001-0.167-0.003-0.333-0.005-0.5c0,0.061,0,0.122,0,0.183c0.001-0.167,0.003-0.333,0.005-0.5
				c-0.192,0.864-1.041,0.334-1.48-0.02c0.158,0.127-0.167,0.865,0,1c1.401,1.13,1.67-0.17,1.442-1.36
				c-0.246-1.282-2.092-1.435-3.079-1.306c-1.22,0.16-2.165,1.25-2.177,2.459c-0.016,1.648,0.36,3.821,2.452,3.705
				c2.182-0.122,4.487-2.635,5.444-4.426C77.653,45.681,77.376,45.199,77.513,44.943L77.513,44.943z"/>
		</g>
	</g>
	<g>
		<g>
			<path fill="#231F20" d="M71.388,42.901c-1.209,1.816-4.07,1.351-5.689,0.433c-0.441-0.25-0.814-0.597-1.126-0.994
				c-0.359-0.457-0.486-1.004-0.435-1.253c0.243-1.174,1.236-2.4,2.244-3.022c1.645-1.015,2.71,1.06,3.039,2.353
				c0.082,0.324,0.148,1.786,0.175,0.726c-0.011,0.426-0.095,0.85-0.27,1.239c-0.279,0.624-0.868,0.743-1.464,0.518
				c0.104,0.039-0.117,0.956,0,1c1.838,0.694,1.779-1.958,1.741-3.086c-0.053-1.537-0.894-4.767-3.069-3.829
				c-2.044,0.882-3.148,4.003-2.181,6.004c1.07,2.214,5.567,3.117,7.036,0.911C71.544,43.667,71.236,43.129,71.388,42.901
				L71.388,42.901z"/>
		</g>
	</g>
	<g>
		<g>
			<path fill="#231F20" d="M69.161,49.469c0.173,0.304,0.265,0.588,0.298,0.936c-0.002-0.211-0.003-0.422-0.005-0.633
				c0,0.065,0,0.13-0.001,0.195c0.002-0.123,0.003-0.245,0.005-0.367c-0.162,1.661-1.708,2.897-3.258,3.23
				c-2.059,0.441-3.438-1.517-3.578-3.354c0.001,0.083,0.003,0.165,0.004,0.248c-0.007-1.154,1.414-2.484,2.494-2.875
				c0.47-0.17,1-0.169,1.414,0.126c0.203,0.145,0.294,0.394,0.359,0.622c-0.081-0.284-0.814-0.66-1.074-0.797
				c0.131,0.069-0.143,0.925,0,1c0.449,0.236,0.595,0.6,1.114,0.371c0.002-0.022,0.003-0.045,0.002-0.068
				c0.009-0.59,0.087-1.248-0.147-1.804c-0.368-0.87-1.547-0.547-2.17-0.234c-1.679,0.844-2.129,2.688-1.998,4.412
				c0.232,3.053,3.06,4.292,5.447,2.474c1.26-0.96,1.921-3.027,1.092-4.48C69.302,48.717,69.016,49.214,69.161,49.469L69.161,49.469
				z"/>
		</g>
	</g>
	<g>
		<g>
			<path fill="#231F20" d="M65.263,42.716c-0.562,0.193-1.13,0.208-1.643-0.12c-0.216-0.138-0.369-0.353-0.486-0.575
				c-0.072-0.137-0.108-0.29-0.141-0.439c-0.035-0.281-0.039-0.159-0.01,0.366c0.013-0.092,0.03-0.183,0.053-0.273
				c0.071-0.319-0.07-0.684,0-1c-0.149,0.674-0.182,1.588,0.053,2.244c0.329,0.917,1.355,1.08,2.174,0.798
				C65.372,43.678,65.167,42.749,65.263,42.716L65.263,42.716z"/>
		</g>
	</g>
	<g>
		<g>
			<path fill="#231F20" d="M64.892,37.334c-2.167,0.032-8.409,1.22-8.735-2.271c0,0.333,0,0.667,0,1
				c0.102-1.138,3.027-1.196,3.07-0.231c0-0.328,0.001-0.655,0.001-0.982c-0.099,0.354-0.53,0.5-0.833,0.628
				c-0.125,0.053,0.113,0.953,0,1c0.659-0.278,1.282-1.106,0.75-1.856c-0.518-0.729-2.539-0.576-2.94,0.182
				c-0.495,0.934,0.307,2.213,0.907,2.798c1.749,1.705,5.618,0.764,7.779,0.732C64.904,38.334,64.894,37.334,64.892,37.334
				L64.892,37.334z"/>
		</g>
	</g>
	<g>
		<g>
			<path fill="#231F20" d="M66.19,35.105c-1.469-0.632-2.602-2.774-2.125-4.319c0.4-1.295,2.409-2.317,3.667-1.669
				c0.367,0.189,0.572,0.586,0.695,0.96c0.026,0.089,0.047,0.18,0.063,0.272c0.096,0.472,0.068-0.495,0.008-0.033
				c-0.026,0.204-0.087,0.401-0.163,0.591c-0.452,1.134-1.176-0.041-1.403-0.628c0.111,0.288-0.113,0.708,0,1
				c0.145,0.375,0.443,1.26,1.003,1.101c0.461-0.131,0.56-0.958,0.591-1.333c0.083-0.983,0.13-2.324-0.795-2.93
				c-0.739-0.484-1.781-0.033-2.47,0.306c-0.986,0.484-1.378,1.524-1.389,2.566c-0.019,1.896,0.345,4.268,2.316,5.116
				C66.076,36.056,66.318,35.16,66.19,35.105L66.19,35.105z"/>
		</g>
	</g>
	<g>
		<g>
			<path fill="#231F20" d="M71.945,34.549c-2.919,2.267-6.023-1.338-6.879-3.965c-1.448-4.446,6.292-5.938,6.316-1.433
				c0.001-0.25,0.003-0.501,0.004-0.752c-0.188,1.446-2.796,2.052-2.904,0.344c0,0.328,0,0.655-0.001,0.982
				c0.036-0.327,0.145-0.574,0.308-0.858c0.146-0.254-0.142-0.752,0-1c-0.824,1.44-0.086,3.67,1.898,2.682
				c0.819-0.408,0.707-1.393,0.703-2.15c-0.01-1.791-1.433-2.98-3.14-3.083c-3.11-0.188-3.719,3.342-3.335,5.655
				c0.479,2.884,3.998,6.934,7.03,4.578C72.111,35.42,71.788,34.67,71.945,34.549L71.945,34.549z"/>
		</g>
	</g>
	<g>
		<g>
			<path fill="#231F20" d="M79.925,34.734c-3.33,2.655-6.93-0.29-8.779-3.239c-1.128-1.798-1.746-3.885-0.87-5.893
				c0.971-2.225,4.162-2.729,4.73,0.046c0-0.327-0.001-0.655-0.001-0.982c-0.075,1.393-1.439,2.399-2.318,0.974
				c0.146,0.238-0.151,0.755,0,1c1.335,2.166,2.369-0.654,2.32-1.974c-0.071-1.959-2.358-2.333-3.657-1.432
				c-1.178,0.816-1.602,2.471-1.616,3.823c-0.045,4.561,4.938,12.864,10.19,8.677C80.092,35.601,79.768,34.86,79.925,34.734
				L79.925,34.734z"/>
		</g>
	</g>
	<g>
		<g>
			<path fill="#231F20" d="M81.225,28.424c-1.187,0.699-2.576,0.861-3.905,0.521c-0.586-0.15-1.126-0.455-1.542-0.894
				c-0.186-0.196-0.302-0.441-0.39-0.693c-0.051-0.261-0.063-0.207-0.039,0.165c0.026-0.195,0.104-0.382,0.176-0.563
				c0.614-1.543,2.35-2.183,3.835-2.556c1.326-0.333,3.186,0.104,3.231,1.778c0-0.328,0.001-0.655,0.001-0.982
				c-0.089,0.855-0.83,0.973-1.555,0.812c0.063,0.014-0.078,0.983,0,1c0.732,0.163,1.542,0.021,1.557-0.88
				c0.01-0.608,0.058-1.2-0.226-1.757c-1.11-2.181-4.583-0.707-5.971,0.338c-1.11,0.835-1.524,3.045-0.724,4.213
				c1.149,1.679,4.044,1.385,5.549,0.499C81.376,29.335,81.084,28.506,81.225,28.424L81.225,28.424z"/>
		</g>
	</g>
	<g>
		<g>
			<path fill="#231F20" d="M83.638,25.826c-0.588,1.157-1.786,0.798-2.627,0.131c-0.493-0.39-0.873-0.914-1.158-1.469
				c-0.145-0.282-0.238-0.586-0.307-0.894c-0.105-0.472-0.089,0.4-0.009-0.073c0.035-0.208,0.117-0.403,0.204-0.593
				c0.127-0.278-0.125-0.728,0-1c-0.575,1.255-0.301,2.995,0.435,4.112c0.697,1.056,2.621,2.445,3.463,0.787
				C83.774,26.558,83.505,26.088,83.638,25.826L83.638,25.826z"/>
		</g>
	</g>
	<g>
		<g>
			<path fill="#231F20" d="M85.123,29.723c-0.304-0.859-0.566-1.73-0.759-2.621c-0.238-1.1-0.395-1.575,0.182-2.543
				c0.531-0.893,1.718-0.801,2.585-0.623c1.702,0.351,3.048,1.726,3.104,3.511c0-0.327,0.001-0.655,0.001-0.982
				c-0.122,1.076-0.729,1.795-1.8,1.996c-0.791,0.149-1.834-0.272-1.893-1.163c0,0.328-0.001,0.655-0.001,0.982
				c0.065-0.462,0.299-0.757,0.621-1.083c0.17-0.173-0.163-0.835,0-1c-1.331,1.349-0.589,3.613,1.515,3.218
				c1.198-0.225,1.563-1.394,1.563-2.451c0-1.421-0.471-2.543-1.626-3.439c-0.889-0.689-2.602-1.007-3.613-0.425
				c-0.73,0.421-0.851,1.427-0.858,2.182c-0.019,1.896,0.347,3.651,0.979,5.441C85.02,30.429,85.229,30.021,85.123,29.723
				L85.123,29.723z"/>
		</g>
	</g>
	<g>
		<g>
			<path fill="#231F20" d="M82.524,39.447c1.153-0.547,2.539-0.83,3.562,0.12c0.382,0.354,0.576,0.866,0.672,1.365
				c0.029,0.271,0.036,0.214,0.021-0.169c-0.014,0.175-0.055,0.346-0.094,0.516c-0.07,0.3-0.201,0.583-0.343,0.854
				c-0.749,1.445-2.359,2.141-3.882,2.399c-1.269,0.215-4.42,0.108-4.482-1.717c0,0.328,0,0.655-0.001,0.982
				c0.195-1.503,1.615-2.439,3.017-2.55c1.043-0.083,2.835,0.268,2.99,1.539c0-0.327-0.001-0.655-0.001-0.982
				c-0.016,0.366-0.146,0.617-0.345,0.912c-0.157,0.233,0.152,0.774,0,1c0.413-0.614,0.538-1.706,0.21-2.4
				c-0.604-1.277-2.897-1.211-3.979-0.844c-1.323,0.449-1.903,1.801-1.896,3.078c0.009,1.522,1.544,1.872,2.823,2.012
				c2.821,0.309,5.987-1.271,6.005-4.385c0.006-0.905-0.009-1.759-0.611-2.499c-0.918-1.127-2.541-0.764-3.666-0.23
				C82.389,38.511,82.647,39.389,82.524,39.447L82.524,39.447z"/>
		</g>
	</g>
	<g>
		<g>
			<path fill="#231F20" d="M80.482,37.147c-1.44-1.526-2.284-3.942-0.716-5.67c1.236-1.362,5.245-1.227,5.451,0.999
				c0-0.327,0-0.655-0.001-0.982c-0.044,1.385-2.514,3.318-2.695,1.089c0.001,0.285,0.002,0.569,0.004,0.854
				c0.001-0.087,0.001-0.174,0.002-0.262c0.001-0.12-0.003-1.085-0.007-0.707c-0.006,0.599-0.098,1.306,0.187,1.853
				c0.402,0.774,1.472,0.02,1.848-0.348c0.91-0.891,1-2.848-0.014-3.667c-2.208-1.785-5.605-0.297-5.702,2.477
				c-0.07,1.988,0.214,3.85,1.643,5.364C80.32,37.975,80.652,37.328,80.482,37.147L80.482,37.147z"/>
		</g>
	</g>
	<g>
		<g>
			<path fill="#231F20" d="M78.998,38.633c-1.921,0.547-3.597,0.354-4.518-1.572c-0.859-1.799-0.878-3.951-1.421-5.853
				c0.087,0.306-0.088,0.69,0,1c0.528,1.847,0.645,3.8,1.318,5.606c0.789,2.119,2.633,2.385,4.621,1.819
				C79.092,39.606,78.917,38.656,78.998,38.633L78.998,38.633z"/>
		</g>
	</g>
	<g>
		<g>
			<path fill="#231F20" d="M78.07,31.58c-0.852,0.726-1.836,0.89-2.798,0.271c-0.85-0.546-1.536-1.799-1.286-2.799
				c0.079-0.315-0.078-0.688,0-1c-0.271,1.083-0.229,2.434,0.205,3.461c0.697,1.649,2.485,2.254,3.878,1.066
				C78.239,32.436,77.91,31.717,78.07,31.58L78.07,31.58z"/>
		</g>
	</g>
	<g>
		<g>
			<path fill="#231F20" d="M87.164,36.849c3.646-1.391,4.948-4.585,4.641-8.239c0.027,0.33-0.028,0.668,0,1
				c0.244,2.905-2.131,5.282-4.641,6.239C87.047,35.894,87.269,36.809,87.164,36.849L87.164,36.849z"/>
		</g>
	</g>
	<g>
		<g>
			<path fill="#231F20" d="M84.751,34.436c2.184,0.311,3.855-1.311,4.775-3.13c0.605-1.198,0.654-2.484,0.609-3.791
				c0.009,0.235-0.013,0.663-0.002,0.964c-0.018-0.497-0.115,0.409-0.116,0.416c-0.076,0.391-0.219,0.766-0.366,1.134
				c-0.265,0.663-0.671,1.259-1.123,1.806c-0.934,1.129-2.308,1.811-3.777,1.602C84.791,33.441,84.698,34.428,84.751,34.436
				L84.751,34.436z"/>
		</g>
	</g>
	<g>
		<g>
			<path fill="#231F20" d="M84.009,29.795c3.359,0.276,5.768-4.327,2.97-6.567c0.158,0.126-0.167,0.866,0,1
				c0.652,0.522,1.136,1.184,1.144,2.05c0.001-0.284,0.003-0.569,0.004-0.854c-0.168,2.041-2.12,3.535-4.117,3.371
				C84.028,28.796,83.974,29.792,84.009,29.795L84.009,29.795z"/>
		</g>
	</g>
	<g>
		<g>
			<path fill="#231F20" d="M90.32,24.898c-0.533-0.137-1.073-0.305-1.53-0.621c-0.138-0.095-0.259-0.212-0.354-0.349
				c-0.304-0.436,0.062-0.562-0.116,0.473c0.102-0.591,0.853-0.919,1.359-1.052c0.655-0.172,1.432-0.112,1.932,0.388
				c0.307,0.306,0.42,0.75,0.441,1.169c-0.072-1.444-0.024-0.325-0.132,0.134c-0.032,0.136-0.05,0.497-0.185,0.323
				c-0.146-0.189-0.151-0.457-0.302-0.653c0.158,0.206-0.164,0.787,0,1c0.15,0.195,0.192,0.435,0.302,0.653
				c0.107,0.215,0.181-0.309,0.207-0.421c0.072-0.307,0.109-0.621,0.114-0.936c0.011-0.616,0.078-1.304-0.182-1.882
				c-0.369-0.823-1.357-0.965-2.146-0.787c-0.692,0.155-1.416,0.574-1.425,1.349c-0.006,0.509-0.102,1.027,0.278,1.417
				c0.44,0.452,1.149,0.643,1.738,0.793C90.247,25.88,90.407,24.921,90.32,24.898L90.32,24.898z"/>
		</g>
	</g>
	<g>
		<g>
			<path fill="#231F20" d="M90.505,28.682c0.88-2.208,3.032-2.05,4.7-0.786c0.756,0.573,1.386,1.374,1.676,2.281
				c0.102,0.317-0.002,0.764,0.085-0.067c-0.022,0.216-0.108,0.417-0.21,0.607c-0.22,0.413-0.646,0.672-1.054,0.863
				c-0.134,0.063,0.122,0.943,0,1c1.869-0.875,1.52-3.353,0.45-4.747c-1.462-1.906-4.546-2.918-5.647-0.151
				C90.39,27.972,90.618,28.396,90.505,28.682L90.505,28.682z"/>
		</g>
	</g>
	<g>
		<g>
			<path fill="#231F20" d="M94.959,37.776c0.405-2.075,1.026-4.375,2.902-5.594c1.886-1.225,5.04-0.198,5.558,2.042
				c-0.002-0.122-0.004-0.245-0.005-0.367c0,0.125,0.001,0.249,0.001,0.373c0.002-0.211,0.003-0.422,0.005-0.633
				c-0.518,2.113-2.937,1.643-3.216-0.316c0,0.328,0.001,0.655,0.001,0.982c0.046-0.252,0.091-0.505,0.137-0.757
				c0.089-0.31-0.087-0.694,0-1c-0.319,1.12-0.253,2.475,0.696,3.251c1.033,0.845,2.132-0.138,2.382-1.16
				c0.089-0.365,0.006-0.859,0.002-1.226c-0.022-2.309-3.223-2.965-4.93-2.478c-2.364,0.675-3.128,3.809-3.533,5.882
				C94.896,37.099,95.021,37.457,94.959,37.776L94.959,37.776z"/>
		</g>
	</g>
	<g>
		<g>
			<path fill="#231F20" d="M94.405,37.03c-0.002-0.081-0.004-0.161-0.006-0.241c-0.001,0.311-0.001,0.621-0.002,0.932
				c0.142-1.644,1.564-2.804,3.058-3.259c1.126-0.343,3.226,0.085,3.241,1.599c0.001-0.285,0.002-0.569,0.003-0.854
				c-0.131,1.167-1.508,1.564-2.499,1.617c-1.454,0.077-2.718-0.746-3.241-2.09c0.111,0.287-0.113,0.708,0,1
				c0.67,1.719,2.438,2.387,4.168,1.951c1.375-0.347,1.587-1.244,1.574-2.472c-0.021-2.201-2.899-2.043-4.257-1.337
				c-1.657,0.861-2.081,2.314-2.045,4.017c0.004,0.185,0.007-0.153,0.007-0.179C94.408,37.486,94.41,37.258,94.405,37.03
				L94.405,37.03z"/>
		</g>
	</g>
	<g>
		<g>
			<path fill="#231F20" d="M95.889,40.728c0.231-3.205,4.304-4.044,6.464-2.06c3.001,2.756-4.668,5.305-5.159,1.787
				c0.001,0.311,0.002,0.621,0.003,0.932c0.047-1.995,4.838-2.751,5.188-0.64c-0.054-0.323,0.054-0.674,0-1
				c-0.362-2.191-5.144-1.307-5.192,0.777c-0.021,0.925,0.016,1.668,0.878,2.241c1.284,0.855,3.471,0.287,4.511-0.696
				c0.635-0.601,0.558-1.675,0.54-2.479c-0.024-1.15-0.609-1.977-1.613-2.519c-2.318-1.252-5.422-0.057-5.62,2.694
				C95.864,40.064,95.906,40.494,95.889,40.728L95.889,40.728z"/>
		</g>
	</g>
	<g>
		<g>
			<path fill="#231F20" d="M87.906,51.325c1.701-0.006,3.975,0.034,5.101-1.485c0.736-0.993,0.514-2.838,0.282-3.969
				c0.065,0.318-0.065,0.679,0,1c0.655,3.198-3.141,3.446-5.383,3.454C87.897,50.325,87.899,51.325,87.906,51.325L87.906,51.325z"/>
		</g>
	</g>
	<g>
		<g>
			<path fill="#231F20" d="M86.051,47.057c3.099,2.886,6.938,0.517,7.238-3.341c0.025-0.332-0.025-0.669,0-1
				c-0.301,3.857-4.14,6.227-7.238,3.341C86.213,46.208,85.881,46.898,86.051,47.057L86.051,47.057z"/>
		</g>
	</g>
	<g>
		<g>
			<path fill="#231F20" d="M90.877,52.068c0.573-0.124,1.192-0.25,1.725,0.065c0.172,0.102,0.256,0.299,0.321,0.476
				c0.07,0.192,0.066-0.245-0.053,0.355c-0.31,1.563-1.012,3.036-1.4,4.582c-0.487,1.939-0.509,4.385,2.005,4.542
				c-0.014-0.001,0.028-0.998,0-1c-3.831-0.24-1.355-4.405-0.723-6.646c0.503-1.777,0.561-3.902-1.875-3.376
				C90.801,51.085,90.938,52.055,90.877,52.068L90.877,52.068z"/>
		</g>
	</g>
	<g>
		<g>
			<path fill="#231F20" d="M108.695,66.288c-1.112-0.224-2.441-0.62-3.433,0.136c-0.847,0.645-0.822,1.784-0.817,2.733
				c0.012,1.907,2.292,4.094,4.161,2.756c0.877-0.628,0.781-2.283,0.572-3.213c-0.37-1.649-1.879-2.01-3.083-0.927
				c-0.17,0.153,0.161,0.855,0,1c0.649-0.584,1.477-0.958,2.266-0.409c0.308,0.214,0.514,0.553,0.667,0.886
				c0.082,0.181,0.134,0.374,0.177,0.567c0.137,0.606,0.115-0.542,0.011,0.056c-0.153,0.867-0.854,1.346-1.695,1.391
				c-1.633,0.088-2.938-1.3-3.07-2.858c0.001,0.285,0.002,0.569,0.003,0.854c0.01-0.967,0.56-1.887,1.492-2.191
				c0.852-0.278,1.91,0.052,2.75,0.221C108.638,67.276,108.767,66.303,108.695,66.288L108.695,66.288z"/>
		</g>
	</g>
	<g>
		<g>
			<path fill="#231F20" d="M102.384,74.897c1.153,0.794,2.225,1.87,2.832,3.143c0.057,0.126,0.104,0.257,0.145,0.39
				c0.17,0.512,0.143-0.376-0.001,0.087c-0.099,0.32-0.378,0.545-0.639,0.729c-0.619,0.436-1.546,0.578-2.28,0.451
				c-0.493-0.085-0.855-0.435-1.051-0.877c-0.033-0.083-0.059-0.169-0.078-0.257c-0.128-0.495-0.084,0.692-0.008,0.184
				c0.033-0.221,0.118-0.43,0.217-0.629c0.538-1.088,1.568-0.624,2.163,0.122c0-0.333,0-0.667,0-1
				c-0.941,0.395-0.803-0.205-1.486-0.557c0.13,0.066-0.142,0.927,0,1c0.684,0.352,0.545,0.952,1.486,0.557
				c0.032-0.013,0.048-0.94,0-1c-2.087-2.616-3.608,2.587-1.402,3.416c0.876,0.33,2.114-0.082,2.775-0.674
				c0.485-0.435,0.401-1.154,0.397-1.738c-0.011-1.814-1.675-3.384-3.07-4.344C102.534,74.001,102.223,74.787,102.384,74.897
				L102.384,74.897z"/>
		</g>
	</g>
	<g>
		<g>
			<path fill="#231F20" d="M104.426,71.928c0.16,0.133,0.296,0.278,0.389,0.466c0.161,0.326-0.064,0.747,0.063-0.605
				c-0.007,0.079-0.036,0.154-0.068,0.225c-0.14,0.313-0.48,0.507-0.797,0.596c-0.333,0.093-0.702,0.041-0.961-0.197
				c-0.148-0.135-0.221-0.332-0.263-0.523c-0.147-0.667-0.09,0.882,0.012,0.231c0.03-0.191,0.085-0.378,0.141-0.563
				c0.093-0.307-0.092-0.697,0-1c-0.276,0.911-0.612,3.389,1.021,3.064c0.433-0.086,0.877-0.417,0.921-0.88
				c0.064-0.683,0.102-1.347-0.457-1.813C104.585,71.061,104.258,71.788,104.426,71.928L104.426,71.928z"/>
		</g>
	</g>
	<g>
		<g>
			<path fill="#231F20" d="M106.839,57.08c1.823-0.383,3.426,0.376,4.279,2.032c0.868,1.684-0.264,3.576-1.69,4.55
				c-1.88,1.283-4.825-0.994-4.823-2.925c-0.002,0.167-0.003,0.333-0.005,0.5c0.08-1.057,0.927-1.31,1.867-1.188
				c-0.035-0.004,0.05-0.994,0-1c-1.698-0.22-1.963,0.916-1.869,2.318c0.115,1.717,1.572,3.501,3.324,3.694
				c2.371,0.261,3.605-2.765,3.601-4.662c-0.007-2.679-1.797-4.926-4.684-4.319C106.765,56.096,106.898,57.067,106.839,57.08
				L106.839,57.08z"/>
		</g>
	</g>
	<g>
		<g>
			<path fill="#231F20" d="M108.695,53.738c2.58-0.117,4.131,0.901,4.914,3.374c0.324,1.025,0.093,2.139-0.549,2.999
				c-0.81,1.086-1.859-0.169-2.324-0.876c0.15,0.229-0.155,0.764,0,1c0.809,1.228,1.916,1.853,2.692,0.266
				c0.419-0.857,0.407-1.857,0.397-2.789c-0.013-1.251-0.388-2.46-1.09-3.502c-0.906-1.342-2.554-1.539-4.041-1.471
				C108.673,52.739,108.703,53.738,108.695,53.738L108.695,53.738z"/>
		</g>
	</g>
	<g>
		<g>
			<path fill="#231F20" d="M106.467,53.109c-0.637-1.613-0.832-3.702,0.938-4.671c1.638-0.896,3.798,0.346,3.839,2.19
				c0.001-0.311,0.002-0.621,0.003-0.932c-0.075,0.976-0.706,1.515-1.624,1.743c-0.085,0.021,0.071,0.982,0,1
				c1.416-0.352,1.641-1.324,1.627-2.597c-0.015-1.483-1.058-2.602-2.555-2.673c-3.476-0.166-3.058,4.839-2.229,6.939
				C106.354,53.824,106.582,53.4,106.467,53.109L106.467,53.109z"/>
		</g>
	</g>
	<g>
		<g>
			<path fill="#231F20" d="M104.797,47.17c-0.063-0.328-0.002-0.599,0.153-1.156c0.145-0.515,0.39-0.994,0.695-1.43
				c0.601-0.859,1.655-1.314,2.663-0.939c0.424,0.157,0.735,0.503,0.948,0.888c0.105,0.188,0.156,0.403,0.199,0.612
				c-0.074-0.359-0.061,0.126-0.119,0.308c-0.305,0.945-1.167,1.495-2.128,1.533c-0.021,0.001,0.006,1,0,1
				c1.388-0.055,2.271-1.146,2.285-2.496c0.012-1.14-0.002-2.281-1.186-2.845c-1.637-0.78-2.938,1.055-3.358,2.37
				c-0.303,0.946-0.34,2.176-0.153,3.156C104.736,47.85,104.858,47.493,104.797,47.17L104.797,47.17z"/>
		</g>
	</g>
	<g opacity="0.6">
		<g>
			<path fill="#231F20" d="M87.164,38.52c1.497,0.216,2.477,1.316,2.792,2.761c0.339,1.551-1.567,2.508-2.792,2.55
				c-0.019,0,0.004,1,0,1c4.085-0.14,3.702-6.777,0-7.311C87.204,37.525,87.109,38.512,87.164,38.52L87.164,38.52z"/>
		</g>
	</g>
	<g opacity="0.6">
		<g>
			<path fill="#231F20" d="M84.751,46.057c-1.828,3.136-0.461,6.677-0.558,10.042c-0.009,0.301,0.01,0.728,0.003,0.964
				c0.095-3.303-1.172-7.041,0.555-10.005C84.898,46.805,84.608,46.302,84.751,46.057L84.751,46.057z"/>
		</g>
	</g>
	<g opacity="0.6">
		<g>
			<path fill="#231F20" d="M97.188,47.17c-0.594,0.657-0.586,1.968-0.01,2.637c1.061,1.229,3.354,1.659,4.884,1.531
				c1.608-0.134,1.879-1.605,1.856-2.928c-0.032-1.915-2.601-2.682-3.947-1.611c-0.167,0.133,0.157,0.875,0,1
				c1.385-1.101,3.752-0.298,3.944,1.543c0-0.328,0-0.655-0.001-0.982c-0.064,2.03-2.079,2.139-3.596,1.877
				c-1.137-0.196-3.36-0.814-3.523-2.221c0,0.327,0.001,0.655,0.001,0.982c0.014-0.347,0.166-0.578,0.392-0.828
				C97.356,47.983,97.025,47.35,97.188,47.17L97.188,47.17z"/>
		</g>
	</g>
	<g opacity="0.6">
		<g>
			<path fill="#231F20" d="M92.176,38.262c-0.673,1.036-0.563,2.627,0.161,3.601c1.071,1.441,3.444,2.456,5.222,2.225
				c0.05-0.006-0.035-0.996,0-1c-1.328,0.173-2.695-0.37-3.818-1.032c-0.594-0.35-1.118-0.809-1.529-1.362
				c-0.199-0.268-0.32-0.576-0.401-0.896c-0.017,0.305,0.004,0.321,0.061,0.048c0.06-0.212,0.188-0.401,0.306-0.583
				C92.33,39.024,92.025,38.493,92.176,38.262L92.176,38.262z"/>
		</g>
	</g>
	<g opacity="0.6">
		<g>
			<path fill="#231F20" d="M93.845,37.944c0.079,1.963,1.982,3.48,3.899,3.359c0.028-0.002-0.014-0.999,0-1
				c-1.888,0.119-3.818-1.374-3.897-3.323C93.856,37.215,93.832,37.643,93.845,37.944L93.845,37.944z"/>
		</g>
	</g>
	<g opacity="0.6">
		<g>
			<path fill="#231F20" d="M102.941,51.439c-1.913-0.346-2.357,1.348-2.359,2.874c-0.002,1.825,0.77,3.543,2.614,4.147
				c1.763,0.577,3.751-0.504,3.763-2.402c0.003-0.571,0.04-1.103-0.284-1.603c-0.626-0.967-2.093-0.692-2.991-0.418
				c-0.1,0.03,0.086,0.974,0,1c0.782-0.239,1.578-0.381,2.361-0.08c0.257,0.099,0.46,0.289,0.63,0.498
				c0.227,0.279,0.179,0.883,0.259,0.163c-0.178,1.604-2.176,2.138-3.499,1.902c-1.525-0.271-2.501-1.665-2.786-3.097
				c-0.263-1.318,1.135-2.193,2.293-1.983C102.891,52.43,103.007,51.451,102.941,51.439L102.941,51.439z"/>
		</g>
	</g>
	<g opacity="0.6">
		<g>
			<path fill="#231F20" d="M102.756,59.42c-1.063,2.408-1.354,6.636,2.227,6.754c-0.003,0,0.019-1,0-1
				c-1.128-0.037-2.077-0.402-2.605-1.448c-0.533-1.058-0.064-2.303,0.379-3.306C102.88,60.138,102.634,59.696,102.756,59.42
				L102.756,59.42z"/>
		</g>
	</g>
	<g opacity="0.6">
		<g>
			<path fill="#231F20" d="M101.827,66.73c0.516,1.678,0.155,3.674,2.228,4.27c-0.081-0.023,0.096-0.973,0-1
				c-2.072-0.595-1.712-2.591-2.228-4.27C101.92,66.033,101.733,66.424,101.827,66.73L101.827,66.73z"/>
		</g>
	</g>
	<g opacity="0.6">
		<g>
			<path fill="#231F20" d="M99.6,52.811c0.424,2.874-3.057,4.458-5.383,4.383c0.003,0-0.019,1,0,1
				c2.022,0.065,3.96-0.725,4.978-2.543c0.611-1.094,0.585-2.622,0.405-3.839C99.647,52.136,99.552,52.483,99.6,52.811L99.6,52.811z
				"/>
		</g>
	</g>
	<g opacity="0.6">
		<g>
			<path fill="#231F20" d="M97.93,53.48c-0.914-0.639-2.721,0.867-3.553,1.216c-1.92,0.805-2.81-0.931-2.818-2.683
				c-0.001,0.25-0.003,0.501-0.004,0.752c0.182-2.31,3.886-2.044,4.104,0.027c0-0.328-0.001-0.655-0.001-0.982
				c-0.03,0.949-0.312,0.216-0.513-0.187c0.132,0.264-0.135,0.73,0,1c0.172,0.345,0.368,1.13,0.509,0.31
				c0.035-0.202,0.01-0.437,0.01-0.641c0-0.619-0.079-1.053-0.563-1.498c-1.184-1.086-3.479-0.911-3.547,0.988
				c-0.05,1.372-0.068,4.026,1.742,4.154c1.356,0.096,3.438-2.293,4.634-1.458C97.778,54.375,98.091,53.593,97.93,53.48L97.93,53.48
				z"/>
		</g>
	</g>
	<g opacity="0.6">
		<g>
			<path fill="#231F20" d="M90.691,52.367c-2.131-0.18-6.05,0.279-6.131-2.841c0,0.327-0.001,0.655-0.001,0.982
				c0.175-1.877,2.853-2.586,2.975-0.314c-0.013-0.235,0.019-0.663,0.002-0.964c-0.067-1.261-1.046-1.896-2.175-1.212
				c-0.836,0.507-0.814,1.495-0.806,2.344c0.033,3.26,3.873,2.814,6.136,3.005C90.671,53.365,90.727,52.37,90.691,52.367
				L90.691,52.367z"/>
		</g>
	</g>
	<g opacity="0.6">
		<g>
			<path fill="#231F20" d="M78.255,41.045c-1.17,0.117-2.424-0.146-3.554-0.422c-0.909-0.222-2.746-0.669-2.844-1.84
				c0,0.327,0,0.655,0.001,0.982c0.03-0.452,0.326-0.767,0.643-1.06c0.17-0.157-0.162-0.851,0-1
				c-0.935,0.863-0.952,2.414,0.15,3.132c1.455,0.949,3.884,1.379,5.603,1.208C78.296,42.041,78.23,41.047,78.255,41.045
				L78.255,41.045z"/>
		</g>
	</g>
	<g opacity="0.6">
		<g>
			<path fill="#231F20" d="M102.384,44.459c1.743,1.538,3.749,0.462,4.104-1.693c0.27-1.63-0.119-3.466-1.648-4.329
				c-0.902-0.509-2.1-0.742-3.049-0.25c-0.82,0.425-0.945,1.399-0.943,2.213c0.002,0.749,0.15,1.28,0.846,1.686
				c0.874,0.51,2.048,0.293,2.733-0.412c0.17-0.175-0.163-0.833,0-1c-0.96,0.988-3.541,0.947-3.571-0.839
				c-0.001,0.311-0.002,0.621-0.003,0.932c0.154-1.382,1.289-1.974,2.568-1.812c1.326,0.167,2.439,1.015,2.917,2.257
				c0.345,0.895-0.188,1.938-0.936,2.579c-0.959,0.824-2.17,0.416-3.018-0.332C102.545,43.601,102.214,44.31,102.384,44.459
				L102.384,44.459z"/>
		</g>
	</g>
	<g opacity="0.6">
		<g>
			<path fill="#231F20" d="M99.229,43.716c0.088,0.349,0.14,0.694,0.164,1.054c-0.063-0.941-0.073,0.26-0.13,0.52
				c-0.125,0.57-0.389,1.1-0.793,1.519c-0.866,0.898-2.575,0.533-3.38-0.271c-0.136-0.135-0.213-0.311-0.264-0.492
				c0.198,0.71-0.098,0.671,0.13,0.189c0.158-0.336,0.451-0.604,0.755-0.807c0.27-0.18,0.597-0.284,0.919-0.238
				c0.144,0.021,0.259,0.107,0.356,0.207c0.227,0.232,0.139,0.84,0.201,0.103c-0.028,0.332,0.028,0.67,0,1
				c0.07-0.829,0.257-2.671-1.099-2.255c-1.235,0.378-1.352,1.599-1.281,2.681c0.052,0.814,1.035,1.12,1.673,1.31
				c0.981,0.293,1.867-0.108,2.395-0.95c0.75-1.195,0.688-3.238,0.354-4.57C99.307,43.027,99.149,43.401,99.229,43.716
				L99.229,43.716z"/>
		</g>
	</g>
	<g opacity="0.6">
		<g>
			<path fill="#231F20" d="M91.248,37.034c3.912-1.075,3.965-5.548,2.412-8.61c0.133,0.262-0.136,0.732,0,1
				c0.656,1.294,1.105,2.673,0.642,4.102c-0.45,1.386-1.728,2.144-3.054,2.509C91.156,36.06,91.326,37.013,91.248,37.034
				L91.248,37.034z"/>
		</g>
	</g>
	<g opacity="0.6">
		<g>
			<path fill="#231F20" d="M82.153,47.428c1.641,4.394-1.209,8.951-5.568,10.137c-0.091,0.025,0.077,0.979,0,1
				c5.247-1.428,7.368-7.317,5.568-12.137C82.261,46.718,82.043,47.133,82.153,47.428L82.153,47.428z"/>
		</g>
	</g>
	<g opacity="0.6">
		<g>
			<path fill="#231F20" d="M82.153,62.39c-0.747-0.885-1.81-1.287-2.785-1.856c0.14,0.082-0.151,0.912,0,1
				c0.975,0.57,2.038,0.972,2.785,1.856C81.992,63.199,82.32,62.588,82.153,62.39L82.153,62.39z"/>
		</g>
	</g>
	<g opacity="0.6">
		<g>
			<path fill="#231F20" d="M80.575,62.204c-0.969-0.755-2.06-1.309-3.155-1.856c0.127,0.063-0.139,0.93,0,1
				c1.095,0.548,2.186,1.101,3.155,1.856C80.418,63.082,80.741,62.333,80.575,62.204L80.575,62.204z"/>
		</g>
	</g>
	<g opacity="0.6">
		<g>
			<path fill="#231F20" d="M79.925,61.461c-0.409-0.56-1.027-0.889-1.67-1.113c0.097,0.034-0.11,0.961,0,1
				c0.643,0.225,1.261,0.553,1.67,1.113C79.769,62.247,80.086,61.682,79.925,61.461L79.925,61.461z"/>
		</g>
	</g>
	<g opacity="0.6">
		<g>
			<path fill="#231F20" d="M79.369,62.019c-0.625-0.431-1.18-0.944-1.856-1.3c0.131,0.069-0.143,0.925,0,1
				c0.676,0.355,1.231,0.869,1.856,1.3C79.218,62.915,79.529,62.129,79.369,62.019L79.369,62.019z"/>
		</g>
	</g>
	<g opacity="0.6">
		<g>
			<path fill="#231F20" d="M81.039,61.926c-0.335-0.315-0.705-0.537-1.114-0.742c0.127,0.064-0.14,0.93,0,1
				c0.409,0.206,0.779,0.427,1.114,0.742c-0.046-0.043,0.005-0.438,0.005-0.5C81.044,62.356,81.094,61.977,81.039,61.926
				L81.039,61.926z"/>
		</g>
	</g>
	<g opacity="0.6">
		<g>
			<path fill="#231F20" d="M79.09,62.019c-0.924-0.032-1.755-0.482-2.413-1.114c0.046,0.045-0.005,0.436-0.005,0.5
				c0,0.071-0.05,0.447,0.005,0.5c0.658,0.632,1.489,1.082,2.413,1.114C79.086,63.019,79.109,62.019,79.09,62.019L79.09,62.019z"/>
		</g>
	</g>
	<g opacity="0.6">
		<g>
			<path fill="#231F20" d="M78.162,61.555c-0.535-0.51-1.12-0.729-1.855-0.742c-0.001,0-0.014,1,0,1
				c0.735,0.014,1.32,0.232,1.855,0.742c-0.046-0.044,0.005-0.437,0.005-0.5C78.167,61.985,78.217,61.607,78.162,61.555
				L78.162,61.555z"/>
		</g>
	</g>
	<g opacity="0.6">
		<g>
			<path fill="#231F20" d="M76.214,62.204c-0.847-0.417-1.724-0.764-2.599-1.114c0.108,0.043-0.122,0.952,0,1
				c0.875,0.35,1.752,0.698,2.599,1.114C76.088,63.142,76.352,62.272,76.214,62.204L76.214,62.204z"/>
		</g>
	</g>
	<g opacity="0.6">
		<g>
			<path fill="#231F20" d="M77.327,61.833c-0.713-0.027-1.276-0.357-1.856-0.743c0.148,0.099-0.159,0.895,0,1
				c0.58,0.386,1.143,0.716,1.856,0.743C77.322,62.833,77.348,61.834,77.327,61.833L77.327,61.833z"/>
		</g>
	</g>
	<g opacity="0.6">
		<g>
			<path fill="#231F20" d="M74.915,62.204c-0.743-0.186-1.485-0.371-2.228-0.557c0.071,0.018-0.085,0.979,0,1
				c0.743,0.186,1.485,0.371,2.228,0.557C74.843,63.187,75,62.226,74.915,62.204L74.915,62.204z"/>
		</g>
	</g>
	<g opacity="0.6">
		<g>
			<path fill="#231F20" d="M73.615,62.575c-0.691-0.352-1.351-0.762-2.042-1.114c0.129,0.066-0.141,0.928,0,1
				c0.691,0.353,1.351,0.762,2.042,1.114C73.486,63.51,73.756,62.647,73.615,62.575L73.615,62.575z"/>
		</g>
	</g>
	<g opacity="0.6">
		<g>
			<path fill="#231F20" d="M72.13,62.482c-0.411-0.566-1.018-0.761-1.67-0.928c0.073,0.019-0.087,0.978,0,1
				c0.652,0.167,1.259,0.361,1.67,0.928C71.974,63.268,72.291,62.705,72.13,62.482L72.13,62.482z"/>
		</g>
	</g>
	<g opacity="0.6">
		<g>
			<path fill="#231F20" d="M77.142,60.533c-0.607-0.182-1.249-0.189-1.856-0.371c0.084,0.025-0.099,0.971,0,1
				c0.607,0.182,1.249,0.189,1.856,0.371C77.057,61.508,77.24,60.563,77.142,60.533L77.142,60.533z"/>
		</g>
	</g>
	<g opacity="0.6">
		<g>
			<path fill="#231F20" d="M76.214,61.647c-0.846-0.417-1.724-0.764-2.599-1.114c0.108,0.043-0.122,0.952,0,1
				c0.875,0.35,1.753,0.697,2.599,1.114C76.088,62.585,76.352,61.716,76.214,61.647L76.214,61.647z"/>
		</g>
	</g>
	<g opacity="0.6">
		<g>
			<path fill="#231F20" d="M74.172,61.833c-0.32-0.303-0.699-0.544-0.928-0.929c0.145,0.243-0.148,0.75,0,1
				c0.229,0.385,0.608,0.625,0.928,0.929c-0.046-0.044,0.005-0.437,0.005-0.5C74.177,62.263,74.227,61.885,74.172,61.833
				L74.172,61.833z"/>
		</g>
	</g>
	<g opacity="0.6">
		<g>
			<path fill="#231F20" d="M73.43,61.275c-0.371,0-0.743,0-1.114,0c-0.007,0-0.007,1,0,1c0.371,0,0.743,0,1.114,0
				C73.437,62.275,73.437,61.275,73.43,61.275L73.43,61.275z"/>
		</g>
	</g>
	<g opacity="0.6">
		<g>
			<path fill="#231F20" d="M75.9,60.904c-0.534-0.186-1.067-0.371-1.601-0.557c0.097,0.034-0.11,0.962,0,1
				c0.534,0.186,1.067,0.371,1.601,0.557C75.804,61.871,76.01,60.942,75.9,60.904L75.9,60.904z"/>
		</g>
	</g>
	<g opacity="0.6">
		<g>
			<path fill="#231F20" d="M91.553,63.761c0.477-0.658,1.271-1.087,2.041-1.3c0.093-0.025-0.078-0.979,0-1
				c-0.771,0.213-1.564,0.642-2.041,1.3C91.392,62.983,91.708,63.546,91.553,63.761L91.553,63.761z"/>
		</g>
	</g>
	<g opacity="0.6">
		<g>
			<path fill="#231F20" d="M93.154,63.482c0.46-0.951,1.438-1.371,2.455-1.393c0.015,0,0-1,0-1
				c-1.017,0.022-1.995,0.441-2.455,1.393C93.022,62.755,93.283,63.215,93.154,63.482L93.154,63.482z"/>
		</g>
	</g>
	<g opacity="0.6">
		<g>
			<path fill="#231F20" d="M92.682,63.608c0.345-0.567,0.924-0.977,1.588-1.063c0.05-0.006-0.035-0.996,0-1
				c-0.664,0.087-1.243,0.496-1.588,1.063C92.532,62.855,92.827,63.369,92.682,63.608L92.682,63.608z"/>
		</g>
	</g>
	<g opacity="0.6">
		<g>
			<path fill="#231F20" d="M95.053,63.482c0.962-0.206,1.873-0.564,2.783-0.928c0.121-0.048-0.108-0.957,0-1
				c-0.91,0.364-1.821,0.722-2.783,0.928C94.978,62.499,95.113,63.469,95.053,63.482L95.053,63.482z"/>
		</g>
	</g>
	<g opacity="0.6">
		<g>
			<path fill="#231F20" d="M94.402,63.39c0.671-0.331,1.372-0.596,2.042-0.929c0.139-0.069-0.127-0.938,0-1
				c-0.67,0.333-1.371,0.598-2.042,0.929C94.264,62.458,94.528,63.327,94.402,63.39L94.402,63.39z"/>
		</g>
	</g>
	<g opacity="0.6">
		<g>
			<path fill="#231F20" d="M94.031,63.204c0.335-0.504,0.933-0.675,1.485-0.835c0.096-0.028-0.082-0.977,0-1
				c-0.553,0.16-1.15,0.331-1.485,0.835C93.875,62.439,94.183,62.977,94.031,63.204L94.031,63.204z"/>
		</g>
	</g>
	<g opacity="0.6">
		<g>
			<path fill="#231F20" d="M96.908,63.692c0.461-0.624,1.293-0.896,2.042-0.743c-0.058-0.012,0.072-0.985,0-1
				c-0.749-0.152-1.581,0.119-2.042,0.743C96.746,62.912,97.064,63.48,96.908,63.692L96.908,63.692z"/>
		</g>
	</g>
	<g opacity="0.6">
		<g>
			<path fill="#231F20" d="M95.609,62.638c0.55-0.164,1.1-0.185,1.67-0.186c0.008,0,0.007-1,0-1c-0.57,0.001-1.12,0.022-1.67,0.186
				C95.512,61.667,95.693,62.613,95.609,62.638L95.609,62.638z"/>
		</g>
	</g>
	<g opacity="0.6">
		<g>
			<path fill="#231F20" d="M96.815,63.39c0.231-0.562,0.739-0.712,1.3-0.557c-0.079-0.022,0.093-0.974,0-1
				c-0.561-0.156-1.068-0.005-1.3,0.557C96.697,62.677,96.932,63.107,96.815,63.39L96.815,63.39z"/>
		</g>
	</g>
	<g opacity="0.6">
		<g>
			<path fill="#231F20" d="M98.301,63.761c0.525-0.19,0.991-0.486,1.484-0.742c0.143-0.074-0.131-0.932,0-1
				c-0.493,0.256-0.959,0.552-1.484,0.742C98.188,62.802,98.4,63.725,98.301,63.761L98.301,63.761z"/>
		</g>
	</g>
	<g opacity="0.6">
		<g>
			<path fill="#231F20" d="M97.564,63.816c0.354-0.548,0.832-0.74,1.472-0.621c-0.053-0.01,0.067-0.987,0-1
				c-0.64-0.119-1.118,0.073-1.472,0.621C97.41,63.055,97.714,63.584,97.564,63.816L97.564,63.816z"/>
		</g>
	</g>
	<g opacity="0.6">
		<g>
			<path fill="#231F20" d="M96.444,63.019c0.008,0,0.008-1,0-1S96.437,63.019,96.444,63.019L96.444,63.019z"/>
		</g>
	</g>
	<g opacity="0.6">
		<g>
			<path fill="#231F20" d="M99.128,63.703c0.102-0.008,0.204-0.016,0.306-0.023c0.033-0.002-0.018-0.999,0-1
				c-0.102,0.008-0.204,0.016-0.306,0.023C99.095,62.706,99.146,63.702,99.128,63.703L99.128,63.703z"/>
		</g>
	</g>
	<g opacity="0.6">
		<g>
			<path fill="#231F20" d="M99.043,63.39c0.124,0,0.247,0,0.371,0c0.008,0,0.008-1,0-1c-0.124,0-0.247,0-0.371,0
				C99.035,62.39,99.035,63.39,99.043,63.39L99.043,63.39z"/>
		</g>
	</g>
	<g opacity="0.6">
		<g>
			<path fill="#231F20" d="M70.279,151.052c0.014-10.226,6.874-18.861,11.325-27.568c5.32-10.407,8.588-21.931,12.799-32.81
				c0.113-0.292-0.111-0.713,0-1c-4.491,11.603-7.983,23.867-13.875,34.865c-4.545,8.485-10.245,16.512-10.258,26.513
				C70.268,151.617,70.278,151.617,70.279,151.052L70.279,151.052z"/>
		</g>
	</g>
	<g opacity="0.6">
		<g>
			<path fill="#231F20" d="M83.081,118.628c-5.769-10.103-14.46-19.604-14.661-31.855c0-0.05-0.008,0.664-0.005,0.863
				c0.201,12.327,8.858,21.821,14.666,31.992C82.939,119.38,83.227,118.883,83.081,118.628L83.081,118.628z"/>
		</g>
	</g>
	<g opacity="0.6">
		<g>
			<path fill="#231F20" d="M91.99,96.17c-0.39,1.681-0.457,3.31-0.44,5.017c0.011,1.07,0.18,2.117,0.397,3.162
				c0.282,1.353,1.14,2.519,1.226,3.918c0-0.328,0.001-0.655,0.001-0.982c-0.38,2.889-4.484,3.311-4.417,6.389
				c0.053,2.407,2.775,4.194,4.499,5.498c2.129,1.61,5.305,3.267,5.716,6.178c0-0.327-0.001-0.654-0.001-0.982
				c-0.075,2.838-3.334,4.444-5.437,5.735c-3.017,1.853-6.018,3.691-9.079,5.475c-5.759,3.355-11.462,9.204-12.511,16.089
				c-0.05,0.327,0.049,0.676,0,1c1.765-11.585,13.912-16.783,22.68-22.237c2.423-1.507,4.4-3.029,4.35-6.011
				c-0.036-2.107-2.225-3.623-3.708-4.764c-2.055-1.581-6.439-3.85-6.505-6.844c-0.001,0.311-0.002,0.621-0.003,0.932
				c0.658-2.563,4.42-2.987,4.42-5.957c0-0.627-0.066-1.168-0.264-1.773c-0.995-3.045-1.705-5.478-0.925-8.842
				C92.063,96.852,91.917,96.484,91.99,96.17L91.99,96.17z"/>
		</g>
	</g>
	<g opacity="0.8">
		<g>
			<path fill="#231F20" d="M70.646,97.912c1.187,2.526,0.721,5.063,0.808,7.734c0.061,1.883,0.373,3.525,1.56,5.029
				c0.812,1.028,2.072,1.727,2.146,3.161c0-0.327,0.001-0.654,0.001-0.981c-0.344,2.507-2.993,4.53-4.511,6.4
				c-1.417,1.747-2.619,3.828-2.632,6.135c-0.027,4.635,4.619,6.325,6.897,9.829c-0.15-0.23,0.154-0.763,0-1
				c-2.004-3.082-6.751-5.03-6.892-9.059c0,0.327-0.001,0.654-0.001,0.981c0.362-4.396,4.008-7.051,6.392-10.402
				c0.581-0.816,0.992-2.197,0.728-3.251c-0.262-1.046-1.098-1.712-1.817-2.464c-1.874-1.956-1.895-4.383-1.772-7.003
				c0.1-2.115,0.014-4.151-0.906-6.11C70.772,97.182,70.516,97.636,70.646,97.912L70.646,97.912z"/>
		</g>
	</g>
	<g opacity="0.8">
		<g>
			<path fill="#231F20" d="M89.392,122.598c1.329,1.346,2.512,2.817,4.083,3.898c-0.15-0.104,0.161-0.89,0-1
				c-1.571-1.081-2.754-2.553-4.083-3.898C89.555,121.763,89.222,122.425,89.392,122.598L89.392,122.598z"/>
		</g>
	</g>
	<g opacity="0.8">
		<g>
			<path fill="#231F20" d="M71.017,90.303c1.876,4.231,6.248,8.299,10.253,10.546c4.395,2.466,8.451-3.852,10.349-6.834
				c0.153-0.241-0.148-0.767,0-1c-2.066,3.246-5.228,8.25-9.754,7.076c-2.223-0.577-4.47-3.082-6.094-4.59
				c-1.909-1.773-3.691-3.799-4.755-6.198C71.139,89.578,70.892,90.021,71.017,90.303L71.017,90.303z"/>
		</g>
	</g>
	<g opacity="0.8">
		<g>
			<path fill="#231F20" d="M76.214,108.678c2.272,0.238,5.322,1.573,7.424,0.186c0.067-0.044-0.028-1.002,0-1
				c-0.896-0.047-1.811-0.244-1.958-1.258c0,0.333,0,0.666,0,1c0.033-0.373,0.125-0.631,0.288-0.969c0.041-0.085,0.052-0.973,0-1
				c-1.118-0.584-2.595-1.413-2.766-2.802c0,0.328,0.001,0.655,0.001,0.982c0.062-1.307,1.537-1.833,2.579-2.193
				c0.11-0.038-0.096-0.967,0-1c-1.566,0.542-2.589,1.158-2.585,2.844c0.004,1.604,1.486,2.497,2.771,3.168c0-0.334,0-0.666,0-1
				c-0.286,0.594-0.295,1.089-0.292,1.721c0.007,1.152,0.94,1.453,1.962,1.506c0-0.334,0-0.666,0-1
				c-2.102,1.388-5.152,0.053-7.424-0.186C76.241,107.681,76.172,108.674,76.214,108.678L76.214,108.678z"/>
		</g>
	</g>
	<g opacity="0.8">
		<g>
			<path fill="#231F20" d="M84.937,100.438c-2.282,0.828-3.936,2.998-3.341,5.455c-0.076-0.313,0.077-0.684,0-1
				c-0.054-0.261-0.066-0.287-0.036-0.08c0.037-0.222,0.129-0.433,0.216-0.638c0.187-0.443,0.503-0.828,0.821-1.182
				c0.626-0.698,1.462-1.237,2.34-1.556C85.05,101.397,84.836,100.475,84.937,100.438L84.937,100.438z"/>
		</g>
	</g>
	<g opacity="0.8">
		<g>
			<path fill="#231F20" d="M85.123,101.438c0.385,0.504,0.727,1.02,0.794,1.664c-0.001-0.284-0.002-0.569-0.004-0.854
				c-0.014,1.224-1.81,1.852-2.658,2.383c-1.022,0.64-1.301,1.358-1.295,2.5c0.026,4.349,4.446,0.253,6.317-0.31
				c0.099-0.029-0.085-0.975,0-1c-1.559,0.469-6.251,4.563-6.311,0.625c0,0.311-0.001,0.621-0.002,0.932
				c0.16-1.723,2.396-2.146,3.475-3.162c1.042-0.981,0.389-2.854-0.316-3.778C85.281,100.646,84.959,101.224,85.123,101.438
				L85.123,101.438z"/>
		</g>
	</g>
	<g>
		<g>
			<g>
				<path fill="#231F20" d="M77.417,33.752c-7.521,0.272-8.154,11.463-8.774,17.062c-0.371,3.354-0.514,6.77-1.156,10.083
					c-0.445,2.299-1.388,4.418-2.392,6.52c-0.496,1.039-1.012,2.067-1.501,3.109c-0.311,0.662-0.418,1.976-1.21,1.23
					c0.162,0.153-0.17,0.84,0,1c0.536,0.505,0.533,0.334,0.87-0.472c0.438-1.046,0.959-2.061,1.458-3.079
					c1.03-2.104,1.991-4.206,2.601-6.475c0.882-3.279,0.901-6.845,1.255-10.205c0.421-4,0.936-7.912,2.288-11.713
					c1.202-3.379,2.666-5.918,6.562-6.059C77.437,34.751,77.413,33.752,77.417,33.752L77.417,33.752z"/>
			</g>
		</g>
		<g>
			<g>
				<path fill="#231F20" d="M66.886,63.34c-0.014,1.615-0.068,3.223,0.067,4.833c0.158,1.875,1.11,3.643,1.432,5.507
					c0.35,2.028,0.315,4.1,0.68,6.128c-0.058-0.321,0.058-0.676,0-1c-0.414-2.299-0.424-4.645-0.822-6.948
					c-0.191-1.104-0.608-2.139-0.983-3.189c-0.522-1.466-0.381-3.094-0.368-4.625C66.894,63.927,66.889,62.961,66.886,63.34
					L66.886,63.34z"/>
			</g>
		</g>
		<g>
			<g>
				<path fill="#231F20" d="M64.609,68.56c0.17,5.521,3.238,9.958,6.266,14.356c-0.153-0.223,0.158-0.771,0-1
					c-3.019-4.385-6.093-8.81-6.263-14.32C64.62,67.832,64.6,68.259,64.609,68.56L64.609,68.56z"/>
			</g>
		</g>
		<g>
			<g>
				<path fill="#231F20" d="M67.251,77.412c-0.009,2.908,0.51,5.612,1.462,8.378c1.318,3.83,3.72,7.657,3.79,11.799
					c0.001-0.311,0.002-0.621,0.002-0.932c-0.096,1.188-0.387,2.097-1.073,3.076c-0.159,0.227,0.154,0.78,0,1
					c1.276-1.82,1.234-4.025,0.875-6.134c-0.998-5.867-5.066-10.754-5.046-16.923C67.262,77.371,67.253,76.708,67.251,77.412
					L67.251,77.412z"/>
			</g>
		</g>
		<g>
			<g>
				<path fill="#231F20" d="M77.835,30.689c-6.189-6.355-8.749,9.263-9.559,12.27c-1.224,4.543-2.523,9.04-3.589,13.625
					c-1.04,4.475-2.207,8.887-4.114,13.081c-0.127,0.279,0.124,0.727,0,1c3.682-8.101,5.056-17.244,7.449-25.782
					c0.831-2.964,3.454-19.725,9.813-13.195C77.673,31.522,78.006,30.864,77.835,30.689L77.835,30.689z"/>
			</g>
		</g>
		<g>
			<g>
				<path fill="#231F20" d="M75.748,29.297c-3.508-1.937-8.452-1.914-10.441,2.088c-1.297,2.61-1.813,5.662-2.564,8.457
					c-0.789,2.936-1.872,5.799-2.819,8.688c-1.756,5.357-3.167,10.808-3.25,16.473c-0.076,5.159-0.122,9.575-3.895,13.434
					c-0.17,0.174,0.163,0.833,0,1c3.126-3.197,3.853-7.009,3.896-11.332c0.062-6.189,1.107-11.802,2.962-17.686
					c0.92-2.918,1.975-5.794,2.864-8.722c0.859-2.83,1.434-5.722,2.469-8.5c1.716-4.606,6.875-5.052,10.778-2.898
					C75.612,30.222,75.895,29.378,75.748,29.297L75.748,29.297z"/>
			</g>
		</g>
		<g>
			<g>
				<path fill="#231F20" d="M66.142,29.854c-8.067,4.396-10.897,13.837-15.001,21.434c-2.768,5.125-3.857,10.886-6.275,16.165
					c-1.196,2.61-2.875,5.001-4.408,7.418c-1.214,1.914-2.435,3.778-2.575,6.089c-0.018,0.3,0.017,0.729,0.003,0.964
					c0.156-2.581,1.69-4.664,3.033-6.78c1.543-2.432,3.097-4.836,4.299-7.46c2.301-5.022,3.22-10.541,5.923-15.396
					c4.224-7.584,6.87-17.003,15.001-21.434C66.288,30.775,66.008,29.928,66.142,29.854L66.142,29.854z"/>
			</g>
		</g>
		<g>
			<g>
				<path fill="#231F20" d="M74.634,28.88c-5.693-0.301-8.165,7.857-9.518,12.078c-0.863,2.691-1.516,5.442-2.214,8.178
					c-1.082,4.237-3.008,8.43-3.254,12.84c-0.117,2.105-0.083,4.201,0.076,6.305c0.257,3.383,0.225,6.289-0.786,9.522
					c-0.541,1.731-1.206,3.544-1.243,5.38c-0.048,2.366,0.201,4.375,1.753,6.335c1.311,1.655,2.927,2.898,3.911,4.812
					c1.077,2.096,1.455,4.893,0.557,7.074c-0.118,0.288,0.116,0.718,0,1c0.558-1.355,0.67-2.888,0.56-4.35
					c-0.16-2.12-0.657-4.126-1.81-5.929c-1.108-1.734-2.851-2.981-4.013-4.689c-2.727-4.003,1.189-9.586,1.366-13.865
					c0.111-2.672-0.256-5.363-0.402-8.025c-0.287-5.256,1.883-10.112,3.202-15.088c0.706-2.663,1.335-5.34,2.135-7.978
					c1.311-4.321,3.85-12.908,9.68-12.6C74.624,29.879,74.659,28.881,74.634,28.88L74.634,28.88z"/>
			</g>
		</g>
		<g>
			<g>
				<path fill="#231F20" d="M57.507,86.341c-0.032,5.061,2.472,9.504,3.676,14.347c0.993,3.994,1.775,7.642,0.727,11.762
					c-0.702,2.759-2.261,5.193-4.398,7.051c-0.169,0.147,0.161,0.86,0,1c3.734-3.246,5.083-7.921,5.056-12.733
					c-0.017-2.792-0.725-5.381-1.384-8.08c-0.513-2.101-1.079-4.179-1.917-6.176c-0.878-2.093-1.765-4.358-1.75-6.666
					C57.517,86.696,57.511,85.729,57.507,86.341L57.507,86.341z"/>
			</g>
		</g>
		<g>
			<g>
				<path fill="#231F20" d="M64.472,100.039c0.547,3.967,2.108,7.57-0.001,11.367c-1.514,2.726-4.011,4.726-5.427,7.539
					c-0.135,0.269,0.132,0.737,0,1c1.947-3.867,6.612-6.888,6.712-11.542c0.068-3.214-0.847-6.197-1.283-9.364
					C64.517,99.365,64.426,99.711,64.472,100.039L64.472,100.039z"/>
			</g>
		</g>
		<g>
			<g>
				<path fill="#231F20" d="M63.08,70.945c0.419,2.733,0.189,5.521,0.522,8.265c0.334,2.757,1.266,5.492,2.24,8.077
					c2.241,5.947,5.183,10.991,5.309,17.555c0.001,0.05,0.009-0.664,0.005-0.863c-0.103-5.396-1.881-10.329-4.204-15.144
					c-1.35-2.798-2.316-5.758-2.997-8.787c-0.749-3.338-0.359-6.743-0.875-10.102C63.13,70.27,63.03,70.619,63.08,70.945
					L63.08,70.945z"/>
			</g>
		</g>
		<g>
			<g>
				<path fill="#231F20" d="M69.9,98.09c2.541,2.812,5.395,7.576,5.012,11.528c-0.208,2.149-2.003,4.036-3.12,5.776
					c-1.404,2.189-2.445,4.406-4.397,6.195c-0.17,0.156,0.162,0.852,0,1c2.469-2.263,3.787-5.363,5.663-8.083
					c1.19-1.726,1.917-3.328,1.923-5.421c0.012-4.344-2.211-8.821-5.081-11.996C70.063,97.27,69.731,97.903,69.9,98.09L69.9,98.09z"
					/>
			</g>
		</g>
		<g>
			<g>
				<path fill="#231F20" d="M71.153,99.899c0.693,1.866,0.535,3.852,0.625,5.81c0.092,2,0.633,3.935,1.043,5.883
					c0.896,4.261-2.215,7.911-3.338,11.808c-0.089,0.31,0.088,0.694,0,1c1.081-3.747,3.595-6.983,3.584-11.004
					c-0.005-1.83-0.403-3.554-0.808-5.335c-0.681-2.996-0.032-6.269-1.105-9.161C71.261,99.19,71.043,99.604,71.153,99.899
					L71.153,99.899z"/>
			</g>
		</g>
		<g>
			<g>
				<path fill="#231F20" d="M63.631,61.264c-0.023,6.698-1.833,12.996-2.217,19.627c-0.149,2.58,0.097,5.102,1.007,7.54
					c0.844,2.262,2.159,4.33,3.075,6.564c1.244,3.033,1.319,6.447,1.337,9.668c0.031,5.359,1.718,10.568-0.135,15.814
					c-0.105,0.299,0.104,0.706,0,1c1.006-2.849,1.208-5.859,0.941-8.854c-0.283-3.159-0.77-6.243-0.801-9.428
					c-0.023-2.289-0.157-4.535-0.617-6.782c-0.555-2.713-1.996-5.129-3.191-7.592c-1.953-4.025-1.671-8.257-0.931-12.585
					c0.846-4.944,1.523-9.685,1.541-14.706C63.642,61.223,63.634,60.56,63.631,61.264L63.631,61.264z"/>
			</g>
		</g>
		<g>
			<g>
				<path fill="#231F20" d="M65.863,121.172c-1.175-3.075-2.163-6.282-1.252-9.579c0.086-0.312-0.085-0.692,0-1
					c-1.075,3.891-0.157,7.889,1.252,11.579C65.753,121.884,65.975,121.465,65.863,121.172L65.863,121.172z"/>
			</g>
		</g>
		<g>
			<g>
				<path fill="#231F20" d="M61.549,121.894c0.693-2.941,1.767-5.772,2.227-8.77c0.05-0.326-0.05-0.676,0-1
					c-0.46,2.997-1.534,5.828-2.227,8.77C61.474,121.211,61.623,121.58,61.549,121.894L61.549,121.894z"/>
			</g>
		</g>
		<g>
			<g>
				<path fill="#231F20" d="M57.373,83.309c-2.782,2.335-0.674,8.652,0.086,11.269c0.946,3.254,2.432,6.595,2.103,10.066
					c-0.265,2.794-4.581,7.509-7.201,4.278c0.16,0.197-0.166,0.795,0,1c2.471,3.046,6.322-1.055,7.06-3.524
					c0.438-1.465,0.262-3.344,0.121-4.854c-0.274-2.932-1.432-5.727-2.248-8.533c-0.72-2.476-2.291-6.713,0.079-8.702
					C57.541,84.167,57.213,83.442,57.373,83.309L57.373,83.309z"/>
			</g>
		</g>
		<g>
			<g>
				<path fill="#231F20" d="M59.46,105.024c-0.764,3.655-0.859,7.446-3.758,10.161c-0.17,0.159,0.162,0.848,0,1
					c2.898-2.715,2.994-6.506,3.758-10.161C59.527,105.703,59.394,105.342,59.46,105.024L59.46,105.024z"/>
			</g>
		</g>
		<g>
			<g>
				<path fill="#231F20" d="M55.283,75.103c0.178,5.315-3.989,9.783-3.852,15.204c0.192,7.614,7.399,12.081,14.293,8.896
					c0.133-0.062-0.121-0.944,0-1c-6.639,3.067-15.052-1.374-14.181-9.326c0.389-3.552,2.479-6.75,3.397-10.17
					c0.402-1.5,0.396-3.034,0.345-4.568C55.293,74.375,55.273,74.802,55.283,75.103L55.283,75.103z"/>
			</g>
		</g>
		<g>
			<g>
				<path fill="#231F20" d="M62.245,37.928c-0.711,3.254-2.332,6.155-3.877,9.075c-1.729,3.265-3.144,6.708-4.585,10.108
					c-1.541,3.635-2.086,7.242-2.438,11.145c-0.344,3.815-1.368,7.177-2.891,10.677c-1.55,3.564-2.413,7-1.964,10.845
					c0.698,5.993,5.826,10.028,11.023,12.209c-0.112-0.047,0.125-0.947,0-1c-4.347-1.825-8.184-4.633-10.152-9.033
					c-2.901-6.487,1.907-12.278,3.381-18.386c0.687-2.847,0.686-5.852,1.063-8.748c0.42-3.218,1.736-6.215,3.042-9.154
					c1.261-2.84,2.466-5.668,3.921-8.418c1.415-2.673,2.827-5.344,3.478-8.32C62.314,38.608,62.175,38.244,62.245,37.928
					L62.245,37.928z"/>
			</g>
		</g>
		<g>
			<g>
				<path fill="#231F20" d="M57.651,100.457c0.049,0.237,0.08,0.476,0.09,0.718c-0.001-0.123-0.003-0.245-0.004-0.367
					c0,0.116,0,0.231,0.001,0.346c0.001-0.211,0.003-0.422,0.005-0.633c-0.286,3.604-4.468,5.274-7.47,3.668
					c0.133,0.071-0.145,0.923,0,1c2.232,1.193,4.947,0.651,6.579-1.279c1.006-1.19,1.044-2.981,0.799-4.454
					C57.705,99.78,57.597,100.132,57.651,100.457L57.651,100.457z"/>
			</g>
		</g>
		<g>
			<g>
				<path fill="#231F20" d="M77.696,34.752c1.594-0.045,3.169-0.331,4.756-0.082c1.769,0.278,2.94,1.854,3.813,3.263
					c2.024,3.271,1.797,7.611,3.106,11.189c2.233,6.107,7.076,10.827,12.486,14.211c-0.145-0.09,0.155-0.903,0-1
					c-5.522-3.456-10.039-8.1-12.486-14.211c-1.366-3.412-1.268-7.157-2.752-10.512c-0.726-1.641-1.916-2.992-3.538-3.751
					c-1.58-0.739-3.723-0.154-5.385-0.107C77.679,33.752,77.698,34.752,77.696,34.752L77.696,34.752z"/>
			</g>
		</g>
		<g>
			<g>
				<path fill="#231F20" d="M87.022,39.902c6.848,10.381,11.84,23.646,25.753,25.613c-0.039-0.005,0.054-0.992,0-1
					C98.862,62.548,93.87,49.284,87.022,38.902C87.173,39.131,86.867,39.667,87.022,39.902L87.022,39.902z"/>
			</g>
		</g>
		<g>
			<g>
				<path fill="#231F20" d="M78.671,31.412c4.632-0.692,10.188-2.741,14.072,0.961c1.453,1.385,2.186,3.484,2.873,5.313
					c1.005,2.672,1.871,5.396,2.809,8.092c0.874,2.515,1.949,4.941,2.895,7.427c0.971,2.555,1.75,5.158,2.967,7.615
					c2.428,4.899,7.501,8.192,12.248,10.543c-0.126-0.063,0.139-0.931,0-1c-4.637-2.296-9.131-5.34-11.863-9.84
					c-1.404-2.312-2.174-5.007-3.068-7.539c-0.979-2.766-2.197-5.438-3.178-8.206c-1.506-4.248-2.488-9.348-5.299-12.979
					c-3.412-4.408-9.953-2.061-14.455-1.388C78.615,30.42,78.712,31.406,78.671,31.412L78.671,31.412z"/>
			</g>
		</g>
		<g>
			<g>
				<path fill="#231F20" d="M95.793,37.536c5.696,3.248,6.9,10.308,9.104,15.941c1.426,3.647,3.796,6.769,6.182,9.837
					c1.398,1.798,2.728,3.516,3.79,5.537c0.951,1.811,1.808,3.629,3.196,5.156c-0.162-0.179,0.169-0.814,0-1
					c-2.646-2.91-3.98-6.851-6.421-9.97c-2.457-3.141-4.919-6.295-6.509-9.978c-2.491-5.769-3.386-13.126-9.343-16.523
					C95.931,36.615,95.644,37.451,95.793,37.536L95.793,37.536z"/>
			</g>
		</g>
		<g>
			<g>
				<path fill="#231F20" d="M78.949,29.045c3.967-1.646,8.123-2.035,12.313-1.067c4.708,1.087,8.242,4.268,11.194,7.924
					c2.904,3.596,5.573,6.97,9.019,10.077c4.181,3.77,6.063,8.565,6.17,14.18c0.001,0.05,0.009-0.664,0.006-0.863
					c-0.086-4.459-1.201-8.805-4.122-12.265c-1.417-1.679-3.203-3.048-4.809-4.538c-2-1.855-3.59-4.107-5.236-6.269
					c-2.946-3.87-6.151-7.136-10.807-8.826c-4.453-1.618-9.418-1.139-13.728,0.648C78.824,28.097,79.06,28.999,78.949,29.045
					L78.949,29.045z"/>
			</g>
		</g>
		<g>
			<g>
				<path fill="#231F20" d="M106.373,40.041c0.484,1.956,1.776,3.346,3.105,4.798c1.529,1.672,2.483,3.567,3.359,5.646
					c1.842,4.371,3.852,8.462,6.063,12.664c2.035,3.868,1.64,8.593,2.399,12.797c0.55,3.047,0.847,5.841-0.155,8.842
					c-0.712,2.131-2.123,4.047-3.357,5.897c-0.156,0.234,0.151,0.773,0,1c2.262-3.389,4.196-6.674,4.196-10.862
					c0-4.158-1.094-8.328-1.48-12.473c-0.544-5.818-4.161-10.276-6.395-15.515c-1.144-2.683-1.886-5.57-3.69-7.922
					c-1.492-1.946-3.429-3.385-4.045-5.872C106.45,39.353,106.295,39.726,106.373,40.041L106.373,40.041z"/>
			</g>
		</g>
		<g>
			<g>
				<path fill="#231F20" d="M110.966,51.039c5.168,5.282,5.509,13.423,6.821,20.185c-0.063-0.32,0.063-0.678,0-1
					c-1.313-6.762-1.653-14.902-6.821-20.185C111.129,50.206,110.796,50.865,110.966,51.039L110.966,51.039z"/>
			</g>
		</g>
		<g>
			<g>
				<path fill="#231F20" d="M100.247,60.088c4.558,6.953-0.082,14.549-1.671,21.689c-0.071,0.319,0.07,0.684,0,1
					c1.719-7.724,6.604-16.163,1.671-23.689C100.397,59.317,100.092,59.852,100.247,60.088L100.247,60.088z"/>
			</g>
		</g>
		<g>
			<g>
				<path fill="#231F20" d="M101.917,69.256c0.297,5.601,2.964,10.855,5.986,15.47c-0.15-0.229,0.155-0.763,0-1
					c-3.013-4.6-5.688-9.849-5.984-15.434C101.932,68.527,101.9,68.956,101.917,69.256L101.917,69.256z"/>
			</g>
		</g>
		<g>
			<g>
				<path fill="#231F20" d="M100.662,74.914c0.036,2.665,0.53,5.361-0.733,7.792c-0.885,1.702-1.799,3.352-2.484,5.149
					c-1.106,2.9-1.3,5.947-1.188,9.009c-0.009-0.235,0.014-0.663,0.002-0.964c-0.177-4.862,1.944-8.675,4.007-12.858
					c1.184-2.399,0.437-6.479,0.403-8.992C100.667,74,100.66,74.714,100.662,74.914L100.662,74.914z"/>
			</g>
		</g>
		<g>
			<g>
				<path fill="#231F20" d="M101.5,80.968c1.582,5.371-1.028,12.129-2.333,17.424c-0.563,2.281-0.876,4.923-0.173,7.216
					c-0.093-0.303,0.094-0.693,0-1c-0.814-2.657,0.229-5.518,0.928-8.102c0.724-2.677,1.237-5.447,1.739-8.173
					c0.501-2.724,0.628-5.688-0.161-8.365C101.59,80.272,101.409,80.659,101.5,80.968L101.5,80.968z"/>
			</g>
		</g>
		<g>
			<g>
				<path fill="#231F20" d="M105.258,79.993c1.69,1.127,1.858,3.761,1.804,5.586c-0.089,2.946-1.129,5.665-2.264,8.352
					c-1.185,2.807-2.472,5.599-4.18,8.128c-1.736,2.572-3.648,4.934-4.825,7.837c-0.117,0.289,0.115,0.717,0,1
					c1.46-3.604,4.071-6.47,6.061-9.767c2.142-3.549,4.147-8.026,4.95-12.098c0.529-2.687,0.979-8.355-1.546-10.039
					C105.406,79.092,105.099,79.887,105.258,79.993L105.258,79.993z"/>
			</g>
		</g>
		<g>
			<g>
				<path fill="#231F20" d="M101.639,100.152c-1.022,5.933-2.019,11.794-1.671,17.826c-0.014-0.235,0.02-0.664,0.002-0.965
					c-0.308-5.356,0.765-10.613,1.669-15.861C101.694,100.828,101.583,100.475,101.639,100.152L101.639,100.152z"/>
			</g>
		</g>
		<g>
			<g>
				<path fill="#231F20" d="M104.283,117.135c-3.058-3.368-0.3-8.918,1.791-12.065c3.182-4.789,8.131-8.429,9.195-14.337
					c0.715-3.967,0.487-8.36,0.527-12.366c0.036-3.582-0.371-7.038-2.883-9.814c0.162,0.179-0.169,0.813,0,1
					c3.852,4.256,2.655,9.969,2.641,15.236c-0.009,3.173-0.204,6.19-1.614,9.071c-1.216,2.481-3.461,4.581-5.201,6.696
					c-2.815,3.423-5.578,7.244-5.768,11.85c-0.083,2.014-0.131,4.139,1.312,5.729C104.121,117.956,104.452,117.321,104.283,117.135
					L104.283,117.135z"/>
			</g>
		</g>
		<g>
			<g>
				<path fill="#231F20" d="M115.838,86.396c2.005,3.792,0.242,8.596,0.267,12.7c0.026,4.527,1.522,9.834,5.163,12.774
					c-0.158-0.128,0.167-0.865,0-1c-4.766-3.85-5.371-10.52-4.777-16.141c0.307-2.909,0.767-6.65-0.652-9.334
					C115.974,85.654,115.698,86.133,115.838,86.396L115.838,86.396z"/>
			</g>
		</g>
		<g>
			<g>
				<path fill="#231F20" d="M113.472,94.306c-0.471,2.407-0.447,4.856,0.093,7.249c0.485,2.152,1.75,4.272,2.701,6.257
					c0.908,1.894,2.066,3.711,4.027,4.616c-0.12-0.056,0.133-0.938,0-1c-2.386-1.102-3.533-3.521-4.581-5.794
					c-1.598-3.463-3.023-6.326-2.24-10.328C113.535,94.983,113.409,94.625,113.472,94.306L113.472,94.306z"/>
			</g>
		</g>
		<g>
			<g>
				<path fill="#231F20" d="M100.525,117.414c-2.324-4.562,1.378-10.003,3.609-13.911c2.686-4.703,4.359-9.392,5.509-14.71
					c0.678-3.138,0.822-6.351,0.562-9.542c-0.549-6.718-4.774-12.433-7.313-18.494c0.117,0.281-0.12,0.714,0,1
					c2.582,6.165,6.503,11.72,7.313,18.494c0.475,3.972-0.58,8.06-1.642,11.856c-0.683,2.44-1.402,4.794-2.563,7.049
					c-2.81,5.46-8.783,12.765-5.476,19.257C100.393,118.152,100.662,117.682,100.525,117.414L100.525,117.414z"/>
			</g>
		</g>
		<g>
			<g>
				<path fill="#231F20" d="M98.438,102.266c0.894-6.425,1.768-12.882,3.331-19.184c0.808-3.256,1.349-6.467,0.845-9.796
					c0.049,0.325-0.05,0.673,0,1c0.69,4.557-1.336,9.51-2.162,13.959c-0.801,4.318-1.409,8.671-2.014,13.021
					C98.392,101.593,98.482,101.94,98.438,102.266L98.438,102.266z"/>
			</g>
		</g>
		<g>
			<g>
				<path fill="#231F20" d="M90.363,30.437c7.453,1.311,10.816,8.861,13.864,14.937c2.241,4.47,4.916,8.727,7.435,13.043
					c2.576,4.415,4.581,9.568,5.985,14.479c-0.088-0.306,0.089-0.69,0-1c-1.327-4.642-3.229-9.431-5.524-13.677
					c-2.434-4.5-5.303-8.757-7.63-13.316c-3.164-6.202-6.445-14.114-14.13-15.465C90.413,29.445,90.299,30.425,90.363,30.437
					L90.363,30.437z"/>
			</g>
		</g>
		<g>
			<g>
				<path fill="#231F20" d="M117.787,72.615c1.471,2.617,3.584,5.186,3.592,8.333c0.001-0.211,0.003-0.422,0.005-0.633
					c-0.435,4.14-3.659,7.051-4.85,10.927c-0.094,0.307,0.093,0.698,0,1c1.182-3.846,4.829-6.986,4.854-11.174
					c0.021-3.691-1.839-6.317-3.601-9.453C117.928,71.865,117.643,72.359,117.787,72.615L117.787,72.615z"/>
			</g>
		</g>
		<g>
			<g>
				<path fill="#231F20" d="M122.381,118.666c-2.377-3.492-3.704-6.949-7.796-8.77c-2.525-1.123-6.846-2.01-7.1,1.828
					c-0.021,0.301,0.018,0.73,0.002,0.965c0.283-4.266,5.298-2.594,7.811-1.476c3.638,1.618,4.987,5.374,7.083,8.452
					C122.229,119.442,122.538,118.897,122.381,118.666L122.381,118.666z"/>
			</g>
		</g>
		<g>
			<g>
				<path fill="#231F20" d="M116.813,107.67c-2.087-1.941-5.313-2.074-8.014-1.972c-1.365,0.052-2.67,0.269-3.757,1.141
					c-1.048,0.84-1.414,2.608-2.011,3.754c-0.138,0.265,0.135,0.741,0,1c1.389-2.667,1.828-4.512,5.198-4.855
					c2.803-0.286,6.42-0.08,8.583,1.933C116.65,108.52,116.982,107.828,116.813,107.67L116.813,107.67z"/>
			</g>
		</g>
		<g>
			<g>
				<path fill="#231F20" d="M124.469,118.388c-1.84-0.858-3.673-1.727-5.48-2.65c-1.354-0.691-2.358-1.609-3.939-1.427
					c-1.875,0.216-3.345,1.346-4.918,2.268c-1.68,0.984-4.106,0.983-5.986,1.114c-0.03,0.002,0.016,0.999,0,1
					c2.074-0.145,4.031-0.371,5.986-1.114c1.764-0.67,3.007-1.804,4.918-2.268c1.461-0.355,2.736,0.795,3.939,1.427
					c1.796,0.943,3.643,1.793,5.48,2.65C124.348,119.331,124.603,118.45,124.469,118.388L124.469,118.388z"/>
			</g>
		</g>
		<g>
			<g>
				<path fill="#231F20" d="M121.545,112.541c-3.07-0.356-6.144-0.462-9.116,0.505c-3.136,1.02-4.485,4.466-6.892,6.455
					c-0.168,0.139,0.159,0.868,0,1c2.274-1.881,3.524-4.797,6.213-6.177c2.901-1.488,6.679-1.146,9.795-0.783
					C121.515,113.537,121.591,112.546,121.545,112.541L121.545,112.541z"/>
			</g>
		</g>
		<g>
			<g>
				<path fill="#231F20" d="M126.695,123.399c-5.052-0.628-10.047-1.412-14.181,2.21c-3.308,2.897-7.988,4.513-12.128,2.105
					c0.139,0.081-0.15,0.912,0,1c3.953,2.299,9.044,0.981,12.128-2.105c3.798-3.803,9.4-2.805,14.181-2.21
					C126.662,124.396,126.743,123.405,126.695,123.399L126.695,123.399z"/>
			</g>
		</g>
		<g>
			<g>
				<path fill="#231F20" d="M124.886,127.176c-0.097,2.01,0.081,3.801,1.675,5.266c2.647,2.435,7.379,2.383,10.715,2.119
					c0.021-0.002,0.006-0.89,0.001-0.982c-0.021-0.497,0.03-0.297-0.14-0.713c0.115,0.282-0.118,0.712,0,1
					c0.046,0.226,0.092,0.451,0.138,0.678c0-0.328,0.001-0.655,0.001-0.982c-3.563,0.281-12.654,0.131-12.388-5.42
					C124.902,127.839,124.874,127.411,124.886,127.176L124.886,127.176z"/>
			</g>
		</g>
		<g>
			<g>
				<path fill="#231F20" d="M127.113,124.816c2.266-4.234,9.127-2.007,12.477-0.591c1.309,0.553,3.027,1.02,3.027-0.867
					c0-1.651-1.214-2.593-2.418-3.579c0.159,0.13-0.168,0.862,0,1c1.006,0.824,2.247,1.7,2.413,3.079c0-0.334,0-0.667,0-1
					c-0.671,2.275-5.175-0.683-6.747-1.006c-2.76-0.569-7.183-0.97-8.752,1.964C126.973,124.078,127.25,124.561,127.113,124.816
					L127.113,124.816z"/>
			</g>
		</g>
		<g>
			<g>
				<path fill="#231F20" d="M128.088,121.754c2.319-2.902,6.711-3.552,6.686-7.851c-0.023-4.056-6.398-5.329-9.469-5.538
					c0.015,0.001-0.03,0.998,0,1c3.25,0.221,8.87,1.396,9.465,5.29c-0.002-0.211-0.003-0.422-0.005-0.633
					c-0.006,3.221-4.949,4.569-6.677,6.731C127.923,120.961,128.247,121.555,128.088,121.754L128.088,121.754z"/>
			</g>
		</g>
		<g>
			<g>
				<path fill="#231F20" d="M124.607,117.553c-0.305-0.818-0.478-1.513-0.552-2.382c0.001,0.327,0.001,0.654,0.002,0.982
					c0.197-3.567,3.726-5.654,3.851-9.109c0.044-1.201-0.104-2.121-1.073-2.994c0.161,0.146-0.17,0.847,0,1
					c0.683,0.615,0.972,1.097,1.072,2.013c0-0.334,0-0.668,0-1c-0.272,3.219-3.633,5.159-3.811,8.378
					c-0.082,1.467-0.022,2.681,0.511,4.112C124.499,118.263,124.718,117.848,124.607,117.553L124.607,117.553z"/>
			</g>
		</g>
		<g>
			<g>
				<path fill="#231F20" d="M124.747,110.731c-1.342-1.562-2.188-3.396-3.133-5.206c-1.104-2.12-2.812-3.826-3.688-6.068
					c0.112,0.286-0.114,0.708,0,1c0.795,2.032,2.262,3.608,3.36,5.469c1.159,1.963,1.957,4.057,3.461,5.806
					C124.586,111.544,124.915,110.927,124.747,110.731L124.747,110.731z"/>
			</g>
		</g>
		<g>
			<g>
				<path fill="#231F20" d="M128.227,103.91c-4.213-1.081-7.671-3.971-11.275-6.264c0.146,0.092-0.156,0.901,0,1
					c3.604,2.292,7.063,5.183,11.275,6.264C128.153,104.892,128.313,103.933,128.227,103.91L128.227,103.91z"/>
			</g>
		</g>
		<g>
			<g>
				<path fill="#231F20" d="M127.252,98.899c-1.843-0.428-3.524-1.708-5.011-2.819c-1.545-1.154-3.268-2.54-4.176-4.281
					c0.135,0.259-0.139,0.735,0,1c0.917,1.756,2.638,3.094,4.176,4.281c1.458,1.125,3.184,2.394,5.011,2.819
					C127.186,99.884,127.333,98.918,127.252,98.899L127.252,98.899z"/>
			</g>
		</g>
		<g>
			<g>
				<path fill="#231F20" d="M126.557,95.977c-2.386-4.075-5.703-7.594-6.543-12.39c0.057,0.322-0.057,0.675,0,1
					c0.84,4.795,4.157,8.315,6.543,12.39C126.413,96.732,126.704,96.228,126.557,95.977L126.557,95.977z"/>
			</g>
		</g>
		<g>
			<g>
				<path fill="#231F20" d="M125.582,95.445c0.783-4.374,3.102-8.46-1.948-11.023c0.129,0.065-0.141,0.929,0,1
					c1.354,0.687,3.341,1.903,3.186,3.719c-0.152,1.795-0.92,3.533-1.237,5.305C125.524,94.77,125.64,95.124,125.582,95.445
					L125.582,95.445z"/>
			</g>
		</g>
		<g>
			<g>
				<path fill="#231F20" d="M129.758,95.306c1.27-3.819,1.687-8.271-1.67-11.162c0.16,0.138-0.169,0.854,0,1
					c2.938,2.531,2.816,5.713,1.67,9.162C129.657,94.608,129.856,95.008,129.758,95.306L129.758,95.306z"/>
			</g>
		</g>
		<g>
			<g>
				<path fill="#231F20" d="M129.619,97.115c2.581-3.706,3.979-8.202,3.201-12.693c0.056,0.322-0.057,0.675,0,1
					c0.651,3.763-1.092,7.665-3.201,10.693C129.46,96.343,129.772,96.895,129.619,97.115L129.619,97.115z"/>
			</g>
		</g>
		<g>
			<g>
				<path fill="#231F20" d="M126.277,101.431c3.775-2.148,15.319-4.76,11.276-11.301c0.146,0.238-0.151,0.755,0,1
					c3.022,4.889-8.458,7.697-11.276,9.301C126.129,100.516,126.415,101.353,126.277,101.431L126.277,101.431z"/>
			</g>
		</g>
		<g>
			<g>
				<path fill="#231F20" d="M125.86,101.987c2.465-3.755,9.354-5.976,13.503-4.176c-0.115-0.05,0.128-0.944,0-1
					c-4.149-1.8-11.038,0.421-13.503,4.176C125.705,101.224,126.011,101.758,125.86,101.987L125.86,101.987z"/>
			</g>
		</g>
		<g>
			<g>
				<path fill="#231F20" d="M134.908,103.24c1.776-0.03,3.82-0.575,5.43,0.418c-0.144-0.088,0.154-0.905,0-1
					c-1.609-0.993-3.653-0.448-5.43-0.418C134.896,102.24,134.906,103.24,134.908,103.24L134.908,103.24z"/>
			</g>
		</g>
		<g>
			<g>
				<path fill="#231F20" d="M131.568,104.633c2.76,1.803,4.343,4.227,5.846,7.099c-0.135-0.259,0.139-0.735,0-1
					c-1.503-2.872-3.086-5.296-5.846-7.099C131.716,103.729,131.41,104.53,131.568,104.633L131.568,104.633z"/>
			</g>
		</g>
		<g>
			<g>
				<path fill="#231F20" d="M132.682,107.973c2.75,2.992,5.316,5.719,6.403,9.745c-0.083-0.309,0.084-0.688,0-1
					c-1.087-4.026-3.653-6.753-6.403-9.745C132.844,107.149,132.512,107.788,132.682,107.973L132.682,107.973z"/>
			</g>
		</g>
		<g>
			<g>
				<path fill="#231F20" d="M136.857,105.746c1.442-0.219,2.755,0.501,4.177,0.557c-0.006,0,0.021-0.999,0-1
					c-1.422-0.056-2.734-0.775-4.177-0.557C136.801,104.755,136.899,105.74,136.857,105.746L136.857,105.746z"/>
			</g>
		</g>
		<g>
			<g>
				<path fill="#231F20" d="M135.605,98.646c1.582-0.009,3.163-0.115,4.732,0.139c-0.045-0.007,0.06-0.99,0-1
					c-1.569-0.254-3.15-0.148-4.732-0.139C135.596,97.646,135.6,98.646,135.605,98.646L135.605,98.646z"/>
			</g>
		</g>
		<g>
			<g>
				<path fill="#231F20" d="M130.037,103.379c1.005,1.087,2.476,1.558,3.48,2.646c0-0.333,0-0.667,0-1
					c-0.334,0.308-0.69,0.532-1.114,0.696c-0.119,0.047,0.105,0.959,0,1c0.424-0.164,0.78-0.389,1.114-0.696
					c0.055-0.051,0.054-0.941,0-1c-1.005-1.087-2.476-1.558-3.48-2.646C130.199,102.555,129.867,103.195,130.037,103.379
					L130.037,103.379z"/>
			</g>
		</g>
		<g>
			<g>
				<path fill="#231F20" d="M124.051,106.999c0.479,0.783,1.03,1.565,1.67,2.228c-0.048-0.05,0.005-0.432,0.005-0.5
					c0-0.075,0.052-0.441-0.005-0.5c-0.64-0.662-1.191-1.444-1.67-2.228C124.197,106.238,123.9,106.753,124.051,106.999
					L124.051,106.999z"/>
			</g>
		</g>
		<g>
			<g>
				<path fill="#231F20" d="M125.025,97.785c-1.631-1.092-3.233-2.217-5.012-3.063c0.123,0.059-0.136,0.936,0,1
					c1.778,0.845,3.381,1.97,5.012,3.063C124.877,98.686,125.185,97.892,125.025,97.785L125.025,97.785z"/>
			</g>
		</g>
		<g>
			<g>
				<path fill="#231F20" d="M137.275,112.428c2.051,2.264,4.577,4.04,5.986,6.821c0-0.333,0-0.667,0-1
					c-0.634,0.287-1.253,0.497-1.949,0.557c-0.036,0.003,0.021,0.998,0,1c0.696-0.06,1.315-0.27,1.949-0.557
					c0.045-0.021,0.041-0.919,0-1c-1.409-2.781-3.936-4.558-5.986-6.821C137.438,111.607,137.106,112.241,137.275,112.428
					L137.275,112.428z"/>
			</g>
		</g>
		<g>
			<g>
				<path fill="#231F20" d="M136.162,120.641c1.901-0.13,4.32,0.109,5.846-1.253c0.05-0.045,0.049-0.961,0-1
					c-0.303-0.243-0.623-0.395-0.974-0.557c0.121,0.056-0.133,0.938,0,1c0.351,0.162,0.671,0.313,0.974,0.557c0-0.333,0-0.667,0-1
					c-1.525,1.362-3.944,1.123-5.846,1.253C136.132,119.643,136.178,120.64,136.162,120.641L136.162,120.641z"/>
			</g>
		</g>
		<g>
			<g>
				<path fill="#231F20" d="M129.063,115.769c1.949,1.316,5.567,2.646,5.706,5.411c-0.012-0.235,0.018-0.664,0.002-0.965
					c-0.139-2.795-3.732-4.111-5.708-5.446C129.212,114.869,128.902,115.66,129.063,115.769L129.063,115.769z"/>
			</g>
		</g>
		<g>
			<g>
				<path fill="#231F20" d="M131.985,127.74c1.669,0.685,3.554,2.089,5.389,1.201c1.405-0.681,1.549-2.84,1.574-4.193
					c0.003-0.199-0.005-0.913-0.006-0.863c-0.029,1.61-0.315,3.449-1.899,4.217c-1.552,0.751-3.683-0.798-5.058-1.361
					C132.096,126.785,131.862,127.689,131.985,127.74L131.985,127.74z"/>
			</g>
		</g>
		<g>
			<g>
				<path fill="#231F20" d="M132.403,133.03c0.357-4.103,3.558-7.185,4.454-11.137c0.072-0.318-0.071-0.685,0-1
					c-0.896,3.952-4.097,7.034-4.454,11.137C132.374,132.361,132.432,132.7,132.403,133.03L132.403,133.03z"/>
			</g>
		</g>
		<g>
			<g>
				<path fill="#231F20" d="M128.088,130.664c3.559-2.618,6.107-5.938,5.987-10.449c0.007,0.236-0.011,0.663-0.002,0.965
					c0.091,3.42-3.51,6.663-5.985,8.484C127.924,129.785,128.242,130.551,128.088,130.664L128.088,130.664z"/>
			</g>
		</g>
		<g>
			<g>
				<path fill="#231F20" d="M130.177,121.189c-0.056-1.32,0.41-2.642,0.433-3.965c0.01-0.582,0.01-1.161-0.015-1.742
					c0.011,0.235-0.015,0.663-0.002,0.965c0.056,1.32-0.41,2.642-0.433,3.965c-0.01,0.582-0.01,1.161,0.015,1.742
					C130.164,121.919,130.189,121.491,130.177,121.189L130.177,121.189z"/>
			</g>
		</g>
		<g>
			<g>
				<path fill="#231F20" d="M122.938,129.385c-2.337-0.833-5.093-1.243-7.238,0.279c-0.162,0.115,0.152,0.892,0,1
					c2.146-1.522,4.901-1.112,7.238-0.279C122.839,130.35,123.05,129.425,122.938,129.385L122.938,129.385z"/>
			</g>
		</g>
		<g>
			<g>
				<path fill="#231F20" d="M135.466,132.056c1.844-0.258,3.803,0.15,5.568-0.558c0.122-0.049-0.108-0.956,0-1
					c-1.766,0.708-3.725,0.3-5.568,0.558C135.413,131.063,135.504,132.051,135.466,132.056L135.466,132.056z"/>
			</g>
		</g>
		<g>
			<g>
				<path fill="#231F20" d="M138.11,128.158c0.075-0.723,0.074-1.405-0.006-2.127c-0.156-1.417-1.343-2.802-2.08-3.962
					c-1.334-2.102-1.762-4.651-1.809-7.093c-0.001-0.05-0.01,0.664-0.006,0.863c0.041,2.111,0.379,4.051,1.188,6.017
					c0.824,2,2.523,3.516,2.77,5.747c0-0.333,0-0.667,0-1c-0.02,0.185-0.038,0.37-0.058,0.555
					C138.076,127.488,138.145,127.829,138.11,128.158L138.11,128.158z"/>
			</g>
		</g>
		<g>
			<g>
				<path fill="#231F20" d="M125.443,107.529c-2.306-4.254,1.139-10.22-2.367-14.059c0.162,0.178-0.169,0.814,0,1
					c3.459,3.788,0.004,9.698,2.367,14.059C125.306,108.275,125.585,107.79,125.443,107.529L125.443,107.529z"/>
			</g>
		</g>
		<g>
			<g>
				<path fill="#231F20" d="M121.963,98.482c-0.856-1.556-1.822-3.033-3.201-4.177c0.159,0.132-0.168,0.86,0,1
					c1.379,1.144,2.345,2.621,3.201,4.177C121.824,99.23,122.105,98.741,121.963,98.482L121.963,98.482z"/>
			</g>
		</g>
		<g>
			<g>
				<path fill="#231F20" d="M124.19,93.053c-1.931-2.69-3.869-5.725-7.239-6.682c0.08,0.023-0.095,0.973,0,1
					c3.37,0.957,5.309,3.991,7.239,6.682C124.035,93.836,124.351,93.276,124.19,93.053L124.19,93.053z"/>
			</g>
		</g>
		<g>
			<g>
				<path fill="#231F20" d="M129.48,89.295c-0.209-1.336-0.394-2.743-1.148-3.898c-0.762-1.165-2.208-1.741-3.445-2.227
					c0.106,0.042-0.12,0.953,0,1c1.29,0.507,2.603,1.078,3.445,2.227c0.797,1.087,0.947,2.611,1.148,3.898
					C129.43,89.971,129.531,89.621,129.48,89.295L129.48,89.295z"/>
			</g>
		</g>
		<g>
			<g>
				<path fill="#231F20" d="M54.863,109.347c-0.023,2.534-0.805,6.769,1.674,8.371c-0.146-0.095,0.157-0.898,0-1
					c-2.158-1.396-1.688-4.461-1.667-6.664C54.871,109.934,54.866,108.969,54.863,109.347L54.863,109.347z"/>
			</g>
		</g>
		<g>
			<g>
				<path fill="#231F20" d="M49.577,115.072c1.867,3.497,4.494,6.55,8.074,8.353c-0.128-0.064,0.14-0.93,0-1
					c-3.581-1.803-6.207-4.855-8.074-8.353C49.713,114.328,49.437,114.81,49.577,115.072L49.577,115.072z"/>
			</g>
		</g>
		<g>
			<g>
				<path fill="#231F20" d="M51.108,122.451c2.378,2.369,4.473,6.096,4.45,9.549c-0.001,0.149,0.004,1.117,0.009,0.504
					c0.028-4.14-1.497-8.102-4.458-11.053C51.271,121.613,50.938,122.281,51.108,122.451L51.108,122.451z"/>
			</g>
		</g>
		<g>
			<g>
				<path fill="#231F20" d="M55.006,133.03c4.933,0.37,4.772-7.128,4.037-10.466c0.07,0.316-0.07,0.681,0,1
					c0.667,3.027,0.278,8.789-4.037,8.466C55.023,132.031,54.974,133.028,55.006,133.03L55.006,133.03z"/>
			</g>
		</g>
		<g>
			<g>
				<path fill="#231F20" d="M46.654,111.566c-0.947,2.156-1.792,4.447-1.799,6.832c-0.001,0.663,0.006,1.305,0.104,1.962
					c0.104,0.699,0.445,1.298,0.889,1.832c1.005,1.211,1.151-0.728,1.224-1.552c0.029-0.331-0.029-0.67,0-1
					c-0.051,0.58-0.167,1.073-0.353,1.625c-0.261,0.774-0.458,0.308-0.872-0.073c-0.81-0.746-1.021-2.075-0.914-3.099
					c0.198-1.912,0.955-3.782,1.721-5.527C46.778,112.284,46.532,111.843,46.654,111.566L46.654,111.566z"/>
			</g>
		</g>
		<g>
			<g>
				<path fill="#231F20" d="M47.348,106.156c-0.042,1.117-0.037,2.232,0.079,3.346c0.13,1.244,0.509,2.443,1.036,3.571
					c0.186,0.398,0.586,1.63,0.794,0.747c0.062-0.262,0.042-0.721,0.045-0.982c0.001-0.12-0.002-1.085-0.007-0.707
					c-0.005,0.414,0.149,1.531-0.387,0.733c-0.34-0.506-0.583-1.071-0.813-1.632c-0.515-1.255-0.794-2.764-0.743-4.113
					C47.362,106.818,47.339,106.391,47.348,106.156L47.348,106.156z"/>
			</g>
		</g>
		<g>
			<g>
				<path fill="#231F20" d="M49.159,99.873c-0.599,1.507-4.971,8.932-6.542,5.291c0.12,0.278-0.123,0.717,0,1
					c1.571,3.641,5.943-3.784,6.542-5.291C49.274,100.583,49.045,100.158,49.159,99.873L49.159,99.873z"/>
			</g>
		</g>
		<g>
			<g>
				<path fill="#231F20" d="M46.097,98.899c-0.234,1.34-0.887,2.498-1.571,3.657c-0.347,0.588-0.698,1.173-1.021,1.775
					c-0.119,0.227-0.229,0.458-0.331,0.693c-0.034,0.075-0.276-1.237-0.276-1.185c0-0.05-0.008,0.664-0.005,0.863
					c0.005,0.355,0.027,0.658,0.12,1.008c0.196,0.742,0.379-0.154,0.492-0.38c0.181-0.361,0.392-0.709,0.595-1.059
					c0.815-1.396,1.713-2.753,1.997-4.373C46.153,99.575,46.041,99.221,46.097,98.899L46.097,98.899z"/>
			</g>
		</g>
		<g>
			<g>
				<path fill="#231F20" d="M46.097,96.115c-2.765,0.076-5.332,1.174-8.074,1.392c-0.034,0.003,0.019,0.999,0,1
					c2.742-0.218,5.309-1.315,8.074-1.392C46.113,97.115,46.095,96.115,46.097,96.115L46.097,96.115z"/>
			</g>
		</g>
		<g>
			<g>
				<path fill="#231F20" d="M42.338,95.42c-2.833-1.085-5.741-1.614-8.77-1.254c-0.046,0.005,0.032,0.996,0,1
					c3.029-0.36,5.937,0.168,8.77,1.254C42.234,96.38,42.456,95.465,42.338,95.42L42.338,95.42z"/>
			</g>
		</g>
		<g>
			<g>
				<path fill="#231F20" d="M43.034,90.686c-0.161-2.122-0.656-4.201-0.693-6.334c-0.001-0.05-0.008,0.664-0.005,0.863
					c0.038,2.179,0.534,4.303,0.698,6.471C43.009,91.355,43.06,91.018,43.034,90.686L43.034,90.686z"/>
			</g>
		</g>
		<g>
			<g>
				<path fill="#231F20" d="M38.44,90.547c-1.452-2.293-0.32-6.418-4.037-6.542c0.003,0-0.019,1,0,1
					c3.717,0.124,2.584,4.249,4.037,6.542C38.292,91.313,38.593,90.788,38.44,90.547L38.44,90.547z"/>
			</g>
		</g>
		<g>
			<g>
				<path fill="#231F20" d="M39.276,90.852c1.472-3.08-0.097-6.171-2.228-8.518c0.163,0.179-0.169,0.813,0,1
					c1.411,1.554,2.729,3.309,2.775,5.495c0.001-0.311,0.002-0.621,0.002-0.932c-0.066,0.719-0.239,1.303-0.55,1.955
					C39.145,90.125,39.404,90.583,39.276,90.852L39.276,90.852z"/>
			</g>
		</g>
		<g>
			<g>
				<path fill="#231F20" d="M40.807,82.892c-2.893-1.705-5.124-5.237-8.91-4.315c-0.083,0.021,0.069,0.983,0,1
					c3.786-0.921,6.017,2.611,8.91,4.315C40.667,83.809,40.958,82.981,40.807,82.892L40.807,82.892z"/>
			</g>
		</g>
		<g>
			<g>
				<path fill="#231F20" d="M35.518,90.408c-1.292-1.269-3.084-2.843-5.012-2.784c-0.018,0,0.002,1,0,1
					c1.927-0.059,3.72,1.515,5.012,2.784C35.355,91.249,35.688,90.576,35.518,90.408L35.518,90.408z"/>
			</g>
		</g>
		<g>
			<g>
				<path fill="#231F20" d="M36.631,86.65c-1.247-0.312-2.296-1.063-3.48-1.531c0.107,0.042-0.121,0.952,0,1
					c1.184,0.468,2.233,1.22,3.48,1.531C36.56,87.633,36.716,86.672,36.631,86.65L36.631,86.65z"/>
			</g>
		</g>
		<g>
			<g>
				<path fill="#231F20" d="M37.605,83.309c-1.831-0.451-3.56-1.227-5.429-1.531c0.045,0.007-0.06,0.99,0,1
					c1.869,0.305,3.598,1.081,5.429,1.531C37.535,84.292,37.689,83.33,37.605,83.309L37.605,83.309z"/>
			</g>
		</g>
		<g>
			<g>
				<path fill="#231F20" d="M37.466,94.306c-2.123-0.754-4.1,0.407-5.011,2.366c-0.129,0.277,0.126,0.729,0,1
					c0.912-1.959,2.888-3.12,5.011-2.366C37.368,95.271,37.578,94.345,37.466,94.306L37.466,94.306z"/>
			</g>
		</g>
		<g>
			<g>
				<path fill="#231F20" d="M38.44,97.368c-0.834,3.074-5.185,3.979-7.517,5.567c-0.16,0.109,0.15,0.898,0,1
					c2.332-1.588,6.683-2.493,7.517-5.567C38.525,98.056,38.357,97.677,38.44,97.368L38.44,97.368z"/>
			</g>
		</g>
		<g>
			<g>
				<path fill="#231F20" d="M37.884,101.544c-0.509,1.402-1.717,2.038-2.819,2.936c-1.068,0.871-1.266,2.071-1.328,3.364
					c-0.071,1.475-0.013,3.026,0.388,4.445c-0.087-0.307,0.088-0.689,0-1c-0.52-1.836-0.689-3.963,0.605-5.491
					c1.042-1.23,2.563-1.624,3.154-3.254C37.992,102.247,37.778,101.836,37.884,101.544L37.884,101.544z"/>
			</g>
		</g>
		<g>
			<g>
				<path fill="#231F20" d="M39.972,107.529c-1.717,0.842-1.676,2.933-2.44,4.465c-0.993,1.989-2.073,4.051-4.102,5.141
					c-0.145,0.078,0.133,0.929,0,1c1.886-1.013,2.93-2.853,3.879-4.697c0.826-1.604,0.884-4.037,2.664-4.908
					C40.109,108.462,39.846,107.591,39.972,107.529L39.972,107.529z"/>
			</g>
		</g>
		<g>
			<g>
				<path fill="#231F20" d="M38.719,117.135c-0.628,3.268-4.043,4.82-5.429,7.656c-0.133,0.271,0.13,0.734,0,1
					c1.385-2.836,4.801-4.389,5.429-7.656C38.781,117.813,38.657,117.455,38.719,117.135L38.719,117.135z"/>
			</g>
		</g>
		<g>
			<g>
				<path fill="#231F20" d="M38.301,124.096c-0.795,1.568-1.681,3.008-2.852,4.325c-1.035,1.165-2.462,2.17-3.134,3.609
					c-0.129,0.276,0.126,0.729,0,1c0.607-1.303,1.868-2.293,2.851-3.307c1.32-1.362,2.282-2.944,3.135-4.628
					C38.437,124.827,38.168,124.357,38.301,124.096L38.301,124.096z"/>
			</g>
		</g>
		<g>
			<g>
				<path fill="#231F20" d="M38.162,129.551c0.583,1.646,0.465,3.451,0.631,5.169c0.073,0.749,0.222,1.485,0.602,2.141
					c0.292,0.503,0.916-0.831,1.09-1.112c0.365-0.589,0.625-1.241,0.878-1.883c0.115-0.291-0.113-0.714,0-1
					c-0.46,1.169-1.022,2.219-1.81,3.201c-0.086,0.107-0.693-1.842-0.716-1.983c-0.292-1.836-0.047-3.754-0.676-5.532
					C38.266,128.845,38.056,129.252,38.162,129.551L38.162,129.551z"/>
			</g>
		</g>
		<g>
			<g>
				<path fill="#231F20" d="M41.5,119.848c-0.051,2.668-0.483,5.307-0.483,7.979c0,0.596-0.004,1.197,0.063,1.79
					c0.092,0.802,0.235,1.548,0.491,2.314c0.329,0.986,0.563,1.105,1.185,0.263c0.162-0.219-0.157-0.788,0-1
					c-0.856,1.159-1.036,0.187-1.363-0.799c-0.434-1.303-0.379-2.746-0.303-4.096c0.105-1.867,0.38-3.718,0.416-5.589
					C41.509,120.512,41.501,119.798,41.5,119.848L41.5,119.848z"/>
			</g>
		</g>
		<g>
			<g>
				<path fill="#231F20" d="M41.92,112.681c-1.877,1.202-2.79,3.279-2.505,5.454c-0.043-0.326,0.043-0.672,0-1
					c0.035,0.269,0.144-0.44,0.188-0.572c0.134-0.404,0.353-0.777,0.577-1.137c0.438-0.701,1.047-1.301,1.741-1.745
					C42.077,113.58,41.774,112.774,41.92,112.681L41.92,112.681z"/>
			</g>
		</g>
		<g>
			<g>
				<path fill="#231F20" d="M40.528,106.581c3.078,4.315,3.656,9.219,4.316,14.339c-0.021-0.159,0.005-0.34,0.005-0.5
					c0-0.325,0-0.649,0-0.975c0-0.565-0.01-0.565-0.01,0c0,0.325,0,0.649,0,0.975c0.001-0.167,0.003-0.333,0.005-0.5
					c-0.66-5.12-1.238-10.023-4.316-14.339C40.683,105.799,40.368,106.356,40.528,106.581L40.528,106.581z"/>
			</g>
		</g>
		<g>
			<g>
				<path fill="#231F20" d="M42.613,100.031c0.03,2.775,0.483,5.4,1.952,7.803c-0.146-0.239,0.15-0.754,0-1
					c-1.411-2.309-1.916-4.823-1.945-7.51C42.616,98.946,42.612,99.911,42.613,100.031L42.613,100.031z"/>
			</g>
		</g>
		<g>
			<g>
				<path fill="#231F20" d="M47.487,122.016c0.133,2.354,0.682,4.588,1.48,6.803c0.451,1.251,1.041,2.447,1.662,3.62
					c0.25,0.473,1.601,3.349,2.009,2.122c0.101-0.302-0.099-0.702,0-1c-0.357,1.074-0.975-0.399-1.235-0.801
					c-0.709-1.094-1.283-2.271-1.826-3.452c-1.191-2.592-1.927-5.409-2.087-8.257C47.503,121.286,47.471,121.715,47.487,122.016
					L47.487,122.016z"/>
			</g>
		</g>
		<g>
			<g>
				<path fill="#231F20" d="M46.512,126.141c0.057,2.584-0.537,5.091-0.199,7.677c0.039,0.293,0.477,2.451,0.529,1.033
					c0.007-0.204,0.004-0.41,0.003-0.614c-0.004-1.528-0.77-2.731-1.724-3.877c0.161,0.193-0.167,0.8,0,1
					c0.878,1.055,1.577,2.118,1.719,3.51c0-0.334,0-0.667,0-1c0.018,0.696-0.067,0.704-0.256,0.021
					c-0.438-1.067-0.378-2.577-0.304-3.584c0.074-0.997,0.183-1.99,0.236-2.989c0.036-0.677,0.016-1.362,0-2.039
					C46.516,125.228,46.508,125.941,46.512,126.141L46.512,126.141z"/>
			</g>
		</g>
		<g>
			<g>
				<path fill="#231F20" d="M44.146,125.496c0.072,2.227-0.628,4.521-1.112,6.673c-0.072,0.318,0.071,0.685,0,1
					c0.647-2.882,1.21-5.68,1.115-8.638C44.157,124.768,44.137,125.194,44.146,125.496L44.146,125.496z"/>
			</g>
		</g>
		<g>
			<g>
				<path fill="#231F20" d="M48.185,120.362c2.83,2.907,2.393,7.723,6.542,9.466c-0.113-0.047,0.125-0.947,0-1
					c-4.149-1.743-3.712-6.559-6.542-9.466C48.348,119.529,48.015,120.188,48.185,120.362L48.185,120.362z"/>
			</g>
		</g>
		<g>
			<g>
				<path fill="#FFFFFF" d="M69.715,77.256c0.007,0,0.007-1,0-1S69.708,77.256,69.715,77.256L69.715,77.256z"/>
			</g>
		</g>
	</g>
</g>
</svg>
